<svg width="185" height="121" viewBox="0 0 185 121" fill="none" xmlns="http://www.w3.org/2000/svg">
<path d="M181.679 0.234375C183.384 0.234375 184.767 1.61632 184.767 3.32129V18.8213C184.766 20.5262 183.384 21.9082 181.679 21.9082H28.0234V0.234375H181.679Z" stroke="black" stroke-width="0.468352"/>
<rect x="20.8125" y="6.19922" width="0.664273" height="9.85338" fill="black"/>
<rect x="27.457" y="5.53613" width="0.664273" height="11.0712" fill="black"/>
<rect width="6.64273" height="0.664273" transform="matrix(1 0 0 -1 20.8125 6.19922)" fill="black"/>
<path d="M20.8315 16.5521L27.4552 16.6074V15.9431H20.8125L20.8315 16.5521Z" fill="black"/>
<path d="M178.577 32.6416C180.381 32.6416 181.844 34.1035 181.844 35.9072V51.4072C181.844 53.2109 180.381 54.6729 178.577 54.6729H24.7432V32.6416H178.577Z" stroke="black" stroke-width="0.110712"/>
<rect x="31.1107" y="32.6966" width="0.221424" height="21.921" stroke="black" stroke-width="0.221424"/>
<rect x="17.7109" y="38.7861" width="0.664273" height="9.85338" fill="black"/>
<rect x="151.454" y="32.3646" width="0.221424" height="22.4746" stroke="black" stroke-width="0.221424"/>
<path d="M178.58 32.6416C180.384 32.6416 181.846 34.1035 181.846 35.9072V51.4072C181.846 53.2109 180.384 54.6729 178.58 54.6729H151.622V32.6416H178.58Z" stroke="black" stroke-width="0.110712"/>
<rect y="43.6572" width="185" height="0.221424" fill="black"/>
<rect x="24.3555" y="38.1221" width="0.664273" height="11.0712" fill="black"/>
<rect x="130.531" y="49.8574" width="21.0353" height="0.442849" fill="black"/>
<rect x="130.531" y="37.0146" width="21.0353" height="0.442849" fill="black"/>
<rect x="30.7891" y="32.1475" width="0.664273" height="8.79183" transform="rotate(47.0265 30.7891 32.1475)" fill="black"/>
<rect x="24.3633" y="49.1377" width="0.719816" height="8.68141" transform="rotate(-46.8403 24.3633 49.1377)" fill="black"/>
<rect x="30.7773" y="32.1426" width="148.244" height="0.664273" fill="black"/>
<rect width="6.64273" height="0.664273" transform="matrix(1 0 0 -1 17.7109 38.7861)" fill="black"/>
<path d="M17.7299 49.138L24.3537 49.1934V48.5291H17.7109L17.7299 49.138Z" fill="black"/>
<rect x="30.668" y="54.3965" width="148.354" height="0.664273" fill="black"/>
<rect x="31.2188" y="43.4355" width="120.344" height="0.664273" fill="black"/>
<path d="M130.529 37.2363H149.571V50.0791H130.529C130.04 50.0791 129.644 49.6823 129.644 49.1934V38.1221C129.644 37.6329 130.04 37.2363 130.529 37.2363Z" stroke="url(#paint0_linear_623_1421)" stroke-width="0.442849"/>
<path d="M178.803 32.4746C180.331 32.4748 181.57 33.7138 181.57 35.2422V51.96C181.57 53.4885 180.331 54.7274 178.803 54.7275H153.449V32.4746H178.803Z" stroke="url(#paint1_linear_623_1421)" stroke-width="0.664273"/>
<path d="M178.577 65.5742C180.381 65.5742 181.844 67.0361 181.844 68.8398V84.3398C181.844 86.1435 180.381 87.6055 178.577 87.6055H24.7432V65.5742H178.577Z" stroke="black" stroke-width="0.110712"/>
<rect x="31.1107" y="65.6293" width="0.221424" height="21.921" stroke="black" stroke-width="0.221424"/>
<rect x="17.7109" y="71.7188" width="0.664273" height="9.85338" fill="black"/>
<rect x="151.454" y="65.2972" width="0.221424" height="22.4746" stroke="black" stroke-width="0.221424"/>
<path d="M178.58 65.5742C180.384 65.5742 181.846 67.0361 181.846 68.8398V84.3398C181.846 86.1435 180.384 87.6055 178.58 87.6055H151.622V65.5742H178.58Z" stroke="black" stroke-width="0.110712"/>
<rect y="76.5898" width="185" height="0.221424" fill="black"/>
<rect x="24.3555" y="71.0547" width="0.664273" height="11.0712" fill="black"/>
<rect x="130.531" y="82.7891" width="21.0353" height="0.442849" fill="black"/>
<rect x="130.531" y="69.9473" width="21.0353" height="0.442849" fill="black"/>
<rect x="153.117" y="70.3896" width="28.7852" height="0.442849" fill="black"/>
<rect x="153.117" y="83.2324" width="28.7852" height="0.442849" fill="black"/>
<rect x="153.117" y="69.5039" width="28.7852" height="0.442849" fill="black"/>
<rect x="153.117" y="82.3467" width="28.7852" height="0.442849" fill="black"/>
<rect x="29.2266" y="66.626" width="0.442849" height="20.0389" fill="black"/>
<rect x="30.7891" y="65.0791" width="0.664273" height="8.79183" transform="rotate(47.0265 30.7891 65.0791)" fill="black"/>
<rect x="24.3633" y="82.0693" width="0.719816" height="8.68141" transform="rotate(-46.8403 24.3633 82.0693)" fill="black"/>
<rect x="30.7773" y="65.0762" width="148.244" height="0.664273" fill="black"/>
<rect width="6.64273" height="0.664273" transform="matrix(1 0 0 -1 17.7109 71.7188)" fill="black"/>
<path d="M6.54766 79.8306L11.7118 73.5634L11.3755 73.2692L6.1977 79.5466L6.54766 79.8306Z" fill="black"/>
<path d="M17.7299 82.0696L24.3537 82.125V81.4607H17.7109L17.7299 82.0696Z" fill="black"/>
<path d="M6.19922 79.8558L18.0454 79.9111V79.4683L6.19922 79.5236V79.8558Z" fill="black"/>
<path d="M11.4216 73.674L18.0453 73.7109V73.2681H11.375L11.4216 73.674Z" fill="black"/>
<rect x="30.668" y="87.3291" width="148.354" height="0.664273" fill="black"/>
<rect x="31.2188" y="76.3682" width="120.344" height="0.664273" fill="black"/>
<path d="M130.529 70.1689H149.571V83.0117H130.529C130.04 83.0117 129.644 82.615 129.644 82.126V71.0547C129.644 70.5655 130.04 70.1689 130.529 70.1689Z" stroke="url(#paint2_linear_623_1421)" stroke-width="0.442849"/>
<path d="M178.803 65.4082C180.331 65.4084 181.57 66.6474 181.57 68.1758V84.8936C181.57 86.4221 180.331 87.661 178.803 87.6611H153.449V65.4082H178.803Z" stroke="url(#paint3_linear_623_1421)" stroke-width="0.664273"/>
<rect x="153.004" y="65.1865" width="0.442849" height="22.696" fill="black"/>
<rect x="34.2123" y="98.5609" width="0.221424" height="21.921" stroke="black" stroke-width="0.221424"/>
<rect x="20.8125" y="104.65" width="0.664273" height="9.85338" fill="black"/>
<rect x="154.552" y="98.2289" width="0.221424" height="22.4746" stroke="black" stroke-width="0.221424"/>
<path d="M181.682 98.5059C183.485 98.5059 184.947 99.9678 184.947 101.771V117.271C184.947 119.075 183.485 120.537 181.682 120.537H154.724V98.5059H181.682Z" stroke="black" stroke-width="0.110712"/>
<rect x="27.457" y="103.986" width="0.664273" height="11.0712" fill="black"/>
<g filter="url(#filter0_d_623_1421)">
<rect x="133.629" y="115.722" width="21.0353" height="0.442849" fill="black"/>
</g>
<rect x="133.629" y="102.879" width="21.0353" height="0.442849" fill="black"/>
<rect x="156.215" y="103.321" width="28.7852" height="0.442849" fill="black"/>
<rect x="156.215" y="116.164" width="28.7852" height="0.442849" fill="black"/>
<rect x="156.215" y="115.943" width="28.7852" height="0.110712" fill="black"/>
<rect x="156.215" y="102.437" width="28.7852" height="0.442849" fill="black"/>
<rect x="155.996" y="102.989" width="28.7852" height="0.110712" fill="black"/>
<rect x="156.215" y="115.278" width="28.7852" height="0.442849" fill="black"/>
<rect x="32.3281" y="99.5566" width="0.442849" height="20.0389" fill="black"/>
<rect x="33.8867" y="98.0117" width="0.664273" height="8.79183" transform="rotate(47.0265 33.8867 98.0117)" fill="black"/>
<rect x="34.1133" y="99.1152" width="0.442849" height="8.79183" transform="rotate(47.0265 34.1133 99.1152)" fill="black"/>
<rect x="34.2227" y="100.111" width="0.332136" height="8.79183" transform="rotate(47.0265 34.2227 100.111)" fill="black"/>
<rect x="27.4609" y="115.002" width="0.719816" height="8.68141" transform="rotate(-46.8403 27.4609 115.002)" fill="black"/>
<rect x="27.5469" y="113.693" width="0.442849" height="6.62447" transform="rotate(-46.8403 27.5469 113.693)" fill="black"/>
<rect x="27.6797" y="112.834" width="0.332136" height="6.49168" transform="rotate(-46.8403 27.6797 112.834)" fill="black"/>
<rect x="33.875" y="98.0078" width="122.669" height="0.664273" fill="black"/>
<rect x="34.1016" y="99.2256" width="120.566" height="0.332136" fill="black"/>
<rect x="73.0703" y="99.2256" width="110.823" height="0.332136" fill="black"/>
<rect x="34.3203" y="100.111" width="120.566" height="0.332136" fill="black"/>
<rect x="34.2109" y="118.157" width="120.233" height="0.332136" fill="black"/>
<rect x="33.9961" y="108.355" width="99" height="0.33" fill="black"/>
<rect width="6.64273" height="0.664273" transform="matrix(1 0 0 -1 20.8125 104.65)" fill="black"/>
<path d="M9.64922 112.761L14.8133 106.494L14.4771 106.2L9.29926 112.477L9.64922 112.761Z" fill="black"/>
<path d="M20.8315 115.002L27.4552 115.058V114.393H20.8125L20.8315 115.002Z" fill="black"/>
<path d="M9.30078 112.787L21.147 112.843V112.4L9.30078 112.455V112.787Z" fill="black"/>
<path d="M14.5192 106.607L21.143 106.644V106.201H14.4727L14.5192 106.607Z" fill="black"/>
<rect x="33.7695" y="120.261" width="122.78" height="0.664273" fill="black"/>
<g filter="url(#filter1_d_623_1421)">
<rect x="12.9961" y="109.355" width="120" height="0.66" fill="black"/>
</g>
<g filter="url(#filter2_d_623_1421)">
<path d="M133.627 103.101H152.669V115.943H133.627C133.138 115.943 132.741 115.547 132.741 115.058V103.986C132.741 103.497 133.138 103.101 133.627 103.101Z" stroke="url(#paint4_linear_623_1421)" stroke-width="0.442849" shape-rendering="crispEdges"/>
</g>
<path d="M181.9 98.2842C183.459 98.2844 184.723 99.5485 184.724 101.107V117.825C184.724 119.384 183.459 120.648 181.9 120.648H156.491V98.2842H181.9Z" stroke="url(#paint5_linear_623_1421)" stroke-width="0.553561"/>
<rect x="156.105" y="98.1182" width="0.442849" height="22.696" fill="black"/>
<rect x="20.8125" y="104.872" width="7.307" height="0.442849" fill="black"/>
<rect x="20.8125" y="105.868" width="7.307" height="0.332136" fill="black"/>
<rect x="20.8125" y="112.843" width="7.307" height="0.332136" fill="black"/>
<rect x="20.8125" y="113.729" width="7.307" height="0.442849" fill="black"/>
<rect x="154.996" y="98.4502" width="0.110712" height="22.1424" fill="black"/>
<rect x="155.551" y="98.4502" width="0.110712" height="22.1424" fill="black"/>
<rect x="155.219" y="98.4502" width="0.110712" height="22.1424" fill="black"/>
<rect x="155.77" y="98.4502" width="0.110712" height="22.1424" fill="black"/>
<rect x="14.7227" y="106.532" width="6.08917" height="5.97846" fill="black"/>
<rect x="14.3945" y="106.532" width="2.87852" height="5.97846" fill="black"/>
<rect x="10.5156" y="111.515" width="7.08558" height="0.996409" fill="black"/>
<rect x="9.85156" y="111.958" width="1.10712" height="0.664273" fill="black"/>
<rect x="10.1836" y="111.625" width="1.10712" height="0.664273" fill="black"/>
<rect x="10.6289" y="111.072" width="4.5392" height="0.553561" fill="black"/>
<rect x="11.0703" y="110.628" width="4.5392" height="0.553561" fill="black"/>
<rect x="11.293" y="110.186" width="4.5392" height="0.553561" fill="black"/>
<rect x="11.625" y="109.743" width="4.5392" height="0.553561" fill="black"/>
<rect x="12.0664" y="109.3" width="4.5392" height="0.553561" fill="black"/>
<rect x="12.2891" y="108.968" width="4.5392" height="0.553561" fill="black"/>
<rect x="12.7305" y="108.414" width="4.5392" height="0.553561" fill="black"/>
<rect x="13.0625" y="108.082" width="4.5392" height="0.553561" fill="black"/>
<rect x="13.3984" y="107.529" width="4.5392" height="0.553561" fill="black"/>
<rect x="13.7266" y="107.308" width="4.5392" height="0.553561" fill="black"/>
<rect x="14.0625" y="107.197" width="4.5392" height="0.553561" fill="black"/>
<rect x="14.1719" y="106.976" width="4.5392" height="0.553561" fill="black"/>
<path d="M182.011 98.3398C183.417 98.3399 184.557 99.4795 184.557 100.886V118.157C184.557 119.563 183.417 120.703 182.011 120.703H156.769V98.3398H182.011Z" stroke="black" stroke-width="0.442849"/>
<defs>
<filter id="filter0_d_623_1421" x="133.186" y="115.722" width="21.9209" height="1.32808" filterUnits="userSpaceOnUse" color-interpolation-filters="sRGB">
<feFlood flood-opacity="0" result="BackgroundImageFix"/>
<feColorMatrix in="SourceAlpha" type="matrix" values="0 0 0 0 0 0 0 0 0 0 0 0 0 0 0 0 0 0 127 0" result="hardAlpha"/>
<feOffset dy="0.442849"/>
<feGaussianBlur stdDeviation="0.221424"/>
<feComposite in2="hardAlpha" operator="out"/>
<feColorMatrix type="matrix" values="0 0 0 0 0 0 0 0 0 0 0 0 0 0 0 0 0 0 0.22 0"/>
<feBlend mode="normal" in2="BackgroundImageFix" result="effect1_dropShadow_623_1421"/>
<feBlend mode="normal" in="SourceGraphic" in2="effect1_dropShadow_623_1421" result="shape"/>
</filter>
<filter id="filter1_d_623_1421" x="12.5532" y="109.355" width="120.886" height="1.54585" filterUnits="userSpaceOnUse" color-interpolation-filters="sRGB">
<feFlood flood-opacity="0" result="BackgroundImageFix"/>
<feColorMatrix in="SourceAlpha" type="matrix" values="0 0 0 0 0 0 0 0 0 0 0 0 0 0 0 0 0 0 127 0" result="hardAlpha"/>
<feOffset dy="0.442849"/>
<feGaussianBlur stdDeviation="0.221424"/>
<feComposite in2="hardAlpha" operator="out"/>
<feColorMatrix type="matrix" values="0 0 0 0 0 0 0 0 0 0 0 0 0 0 0 0 0 0 0.25 0"/>
<feBlend mode="normal" in2="BackgroundImageFix" result="effect1_dropShadow_623_1421"/>
<feBlend mode="normal" in="SourceGraphic" in2="effect1_dropShadow_623_1421" result="shape"/>
</filter>
<filter id="filter2_d_623_1421" x="131.634" y="102.436" width="21.2568" height="14.1709" filterUnits="userSpaceOnUse" color-interpolation-filters="sRGB">
<feFlood flood-opacity="0" result="BackgroundImageFix"/>
<feColorMatrix in="SourceAlpha" type="matrix" values="0 0 0 0 0 0 0 0 0 0 0 0 0 0 0 0 0 0 127 0" result="hardAlpha"/>
<feOffset dx="-0.442849"/>
<feGaussianBlur stdDeviation="0.221424"/>
<feComposite in2="hardAlpha" operator="out"/>
<feColorMatrix type="matrix" values="0 0 0 0 0 0 0 0 0 0 0 0 0 0 0 0 0 0 0.2 0"/>
<feBlend mode="normal" in2="BackgroundImageFix" result="effect1_dropShadow_623_1421"/>
<feBlend mode="normal" in="SourceGraphic" in2="effect1_dropShadow_623_1421" result="shape"/>
</filter>
<linearGradient id="paint0_linear_623_1421" x1="129.839" y1="43.6574" x2="149.544" y2="43.8463" gradientUnits="userSpaceOnUse">
<stop/>
<stop offset="1" stop-color="#666666" stop-opacity="0"/>
</linearGradient>
<linearGradient id="paint1_linear_623_1421" x1="181.902" y1="43.6566" x2="157.878" y2="43.6566" gradientUnits="userSpaceOnUse">
<stop/>
<stop offset="1" stop-color="#666666" stop-opacity="0"/>
</linearGradient>
<linearGradient id="paint2_linear_623_1421" x1="129.839" y1="76.59" x2="149.544" y2="76.7789" gradientUnits="userSpaceOnUse">
<stop/>
<stop offset="1" stop-color="#666666" stop-opacity="0"/>
</linearGradient>
<linearGradient id="paint3_linear_623_1421" x1="181.902" y1="76.5902" x2="157.878" y2="76.5902" gradientUnits="userSpaceOnUse">
<stop/>
<stop offset="1" stop-color="#666666" stop-opacity="0"/>
</linearGradient>
<linearGradient id="paint4_linear_623_1421" x1="132.937" y1="109.522" x2="152.641" y2="109.711" gradientUnits="userSpaceOnUse">
<stop/>
<stop offset="1" stop-color="#666666" stop-opacity="0"/>
</linearGradient>
<linearGradient id="paint5_linear_623_1421" x1="185" y1="109.522" x2="160.975" y2="109.522" gradientUnits="userSpaceOnUse">
<stop/>
<stop offset="1" stop-color="#666666" stop-opacity="0"/>
</linearGradient>
</defs>
</svg>
