<svg width="133" height="155" viewBox="0 0 133 155" fill="none" xmlns="http://www.w3.org/2000/svg">
<rect x="0.214056" y="0.123585" width="89.6946" height="19.2793" transform="matrix(0.866025 -0.5 0 1 54.8959 134.685)" fill="#EEE4D9" stroke="black" stroke-width="0.494341"/>
<mask id="path-2-inside-1_641_814" fill="white">
<path d="M0 102.382L55.3662 134.348V154.121L0 122.155V102.382Z"/>
</mask>
<path d="M0 102.382L55.3662 134.348V154.121L0 122.155V102.382Z" fill="#EEE4D9"/>
<path d="M55.3662 154.121V154.616L55.7944 154.863V154.368L55.3662 154.121ZM0 122.155L-0.428112 121.908V122.403L0 122.65V122.155ZM55.3662 134.348L54.9381 134.1V153.874L55.3662 154.121L55.7944 154.368V134.595L55.3662 134.348ZM55.3662 154.121V153.627L0 121.661V122.155V122.65L55.3662 154.616V154.121ZM0 122.155L0.428112 122.403V102.629L0 102.382L-0.428112 102.135V121.908L0 122.155Z" fill="black" mask="url(#path-2-inside-1_641_814)"/>
<mask id="path-4-inside-2_641_814" fill="white">
<path d="M0 83.2461L42.019 107.506V127.279L0 103.02V83.2461Z"/>
</mask>
<path d="M0 83.2461L42.019 107.506V127.279L0 103.02V83.2461Z" fill="#EEE4D9"/>
<path d="M42.019 107.506L41.5909 107.259V127.032L42.019 127.279L42.4471 127.527V107.753L42.019 107.506ZM0 103.02L0.428112 103.267V83.4933L0 83.2461L-0.428112 82.9989V102.773L0 103.02Z" fill="black" mask="url(#path-4-inside-2_641_814)"/>
<mask id="path-6-inside-3_641_814" fill="white">
<path d="M0 63.8232L28.1775 80.0915V99.8652L0 83.5969V63.8232Z"/>
</mask>
<path d="M0 63.8232L28.1775 80.0915V99.8652L0 83.5969V63.8232Z" fill="#EEE4D9"/>
<path d="M28.1775 80.0915L27.7493 79.8443V99.618L28.1775 99.8652L28.6056 100.112V80.3387L28.1775 80.0915ZM0 83.5969L0.428112 83.8441V64.0704L0 63.8232L-0.428112 63.5761V83.3497L0 83.5969Z" fill="black" mask="url(#path-6-inside-3_641_814)"/>
<rect x="0.214056" y="0.123585" width="88.553" height="19.2793" transform="matrix(0.866025 -0.5 0 1 42.0443 107.342)" fill="#EEE4D9" stroke="black" stroke-width="0.494341"/>
<rect x="0.214056" y="0.123585" width="89.1238" height="19.2793" transform="matrix(0.866025 -0.5 0 1 27.7162 80.0221)" fill="#EEE4D9" stroke="black" stroke-width="0.494341"/>
<rect x="0.214056" y="0.123585" width="89.1238" height="19.2793" transform="matrix(0.866025 -0.5 0 1 13.8724 52.8336)" fill="#EEE4D9" stroke="black" stroke-width="0.494341"/>
<mask id="path-11-inside-4_641_814" fill="white">
<path d="M0 44.5312L14.3359 52.8081V72.5817L0 64.3049V44.5312Z"/>
</mask>
<path d="M0 44.5312L14.3359 52.8081V72.5817L0 64.3049V44.5312Z" fill="#EEE4D9"/>
<path d="M0 44.5312V44.0369L-0.428112 43.7897V44.2841L0 44.5312ZM14.3359 52.8081L14.764 53.0553V52.5609L14.3359 52.3137V52.8081ZM0 44.5312V45.0256L14.3359 53.3024V52.8081V52.3137L0 44.0369V44.5312ZM14.3359 52.8081L13.9078 52.5609V72.3346L14.3359 72.5817L14.764 72.8289V53.0553L14.3359 52.8081ZM0 64.3049L0.428112 64.5521V44.7784L0 44.5312L-0.428112 44.2841V64.0577L0 64.3049Z" fill="black" mask="url(#path-11-inside-4_641_814)"/>
<rect x="0.428112" width="89.3207" height="15.3246" transform="matrix(0.866025 -0.5 0.866025 0.5 41.573 127.306)" fill="#EEE4D9" stroke="black" stroke-width="0.494341"/>
<rect x="0.428112" width="88.6686" height="15.3246" transform="matrix(0.866025 -0.5 0.866025 0.5 28.0574 99.7209)" fill="#EEE4D9" stroke="black" stroke-width="0.494341"/>
<rect x="0.428112" width="89.1311" height="15.3246" transform="matrix(0.866025 -0.5 0.866025 0.5 13.9011 72.4357)" fill="#EEE4D9" stroke="black" stroke-width="0.494341"/>
<rect x="0.428112" width="89.5693" height="15.3246" transform="matrix(0.866025 -0.5 0.866025 0.5 0.0573562 45.2453)" fill="#EEE4D9" stroke="black" stroke-width="0.494341"/>
<rect width="0.247171" height="19.7737" transform="matrix(0.866025 -0.5 0 1 54.8672 134.997)" fill="black"/>
<rect width="0.247171" height="19.7737" transform="matrix(0.866025 -0.5 0 1 55.9375 134.379)" fill="black"/>
<rect width="0.247171" height="19.7737" transform="matrix(0.866025 -0.5 0 1 57.0078 133.761)" fill="black"/>
<rect width="0.247171" height="19.7737" transform="matrix(0.866025 -0.5 0 1 58.0781 133.144)" fill="black"/>
<rect width="0.247171" height="19.7737" transform="matrix(0.866025 -0.5 0 1 59.1484 132.525)" fill="black"/>
<rect width="0.247171" height="19.7737" transform="matrix(0.866025 -0.5 0 1 60.2188 131.907)" fill="black"/>
<rect width="0.247171" height="19.7737" transform="matrix(0.866025 -0.5 0 1 61.2891 131.289)" fill="black"/>
<rect width="0.247171" height="19.7737" transform="matrix(0.866025 -0.5 0 1 62.3594 130.671)" fill="black"/>
<rect width="0.247171" height="19.7737" transform="matrix(0.866025 -0.5 0 1 63.4297 130.054)" fill="black"/>
<rect width="0.247171" height="19.7737" transform="matrix(0.866025 -0.5 0 1 64.5 129.436)" fill="black"/>
<rect width="0.247171" height="19.7737" transform="matrix(0.866025 -0.5 0 1 65.5703 128.817)" fill="black"/>
<rect width="0.247171" height="19.7737" transform="matrix(0.866025 -0.5 0 1 66.6406 128.199)" fill="black"/>
<rect width="0.247171" height="19.7737" transform="matrix(0.866025 -0.5 0 1 67.7109 127.582)" fill="black"/>
<rect width="0.247171" height="19.7737" transform="matrix(0.866025 -0.5 0 1 68.7812 126.964)" fill="black"/>
<rect width="0.247171" height="19.7737" transform="matrix(0.866025 -0.5 0 1 69.8516 126.346)" fill="black"/>
<rect width="0.247171" height="19.7737" transform="matrix(0.866025 -0.5 0 1 70.9219 125.728)" fill="black"/>
<rect width="0.247171" height="19.7737" transform="matrix(0.866025 -0.5 0 1 71.9922 125.11)" fill="black"/>
<rect width="0.247171" height="19.7737" transform="matrix(0.866025 -0.5 0 1 73.0625 124.492)" fill="black"/>
<rect width="0.247171" height="19.7737" transform="matrix(0.866025 -0.5 0 1 74.1328 123.874)" fill="black"/>
<rect width="0.247171" height="19.7737" transform="matrix(0.866025 -0.5 0 1 75.2031 123.256)" fill="black"/>
<rect width="0.247171" height="19.7737" transform="matrix(0.866025 -0.5 0 1 76.2734 122.639)" fill="black"/>
<rect width="0.247171" height="19.7737" transform="matrix(0.866025 -0.5 0 1 77.3438 122.021)" fill="black"/>
<rect width="0.247171" height="19.7737" transform="matrix(0.866025 -0.5 0 1 78.4141 121.402)" fill="black"/>
<rect width="0.247171" height="19.7737" transform="matrix(0.866025 -0.5 0 1 79.4844 120.784)" fill="black"/>
<rect width="0.247171" height="19.7737" transform="matrix(0.866025 -0.5 0 1 80.5547 120.167)" fill="black"/>
<rect width="0.247171" height="19.7737" transform="matrix(0.866025 -0.5 0 1 81.625 119.549)" fill="black"/>
<rect width="0.247171" height="19.7737" transform="matrix(0.866025 -0.5 0 1 82.6953 118.931)" fill="black"/>
<rect width="0.247171" height="19.7737" transform="matrix(0.866025 -0.5 0 1 83.7656 118.312)" fill="black"/>
<rect width="0.247171" height="19.7737" transform="matrix(0.866025 -0.5 0 1 84.8359 117.695)" fill="black"/>
<rect width="0.247171" height="19.7737" transform="matrix(0.866025 -0.5 0 1 85.9062 117.077)" fill="black"/>
<rect width="0.247171" height="19.7737" transform="matrix(0.866025 -0.5 0 1 86.9766 116.459)" fill="black"/>
<rect width="0.247171" height="19.7737" transform="matrix(0.866025 -0.5 0 1 88.0469 115.841)" fill="black"/>
<rect width="0.247171" height="19.7737" transform="matrix(0.866025 -0.5 0 1 89.1172 115.224)" fill="black"/>
<rect width="0.247171" height="19.7737" transform="matrix(0.866025 -0.5 0 1 90.1875 114.605)" fill="black"/>
<rect width="0.247171" height="19.7737" transform="matrix(0.866025 -0.5 0 1 91.2578 113.987)" fill="black"/>
<rect width="0.247171" height="19.7737" transform="matrix(0.866025 -0.5 0 1 92.3281 113.369)" fill="black"/>
<rect width="0.247171" height="19.7737" transform="matrix(0.866025 -0.5 0 1 93.3984 112.752)" fill="black"/>
<rect width="0.247171" height="19.7737" transform="matrix(0.866025 -0.5 0 1 94.4688 112.134)" fill="black"/>
<rect width="0.247171" height="19.7737" transform="matrix(0.866025 -0.5 0 1 95.5391 111.516)" fill="black"/>
<rect width="0.247171" height="19.7737" transform="matrix(0.866025 -0.5 0 1 96.6094 110.897)" fill="black"/>
<rect width="0.247171" height="19.7737" transform="matrix(0.866025 -0.5 0 1 97.6797 110.28)" fill="black"/>
<rect width="0.247171" height="19.7737" transform="matrix(0.866025 -0.5 0 1 98.75 109.662)" fill="black"/>
<rect width="0.247171" height="19.7737" transform="matrix(0.866025 -0.5 0 1 99.8203 109.044)" fill="black"/>
<rect width="0.247171" height="19.7737" transform="matrix(0.866025 -0.5 0 1 100.891 108.426)" fill="black"/>
<rect width="0.247171" height="19.7737" transform="matrix(0.866025 -0.5 0 1 101.961 107.808)" fill="black"/>
<rect width="0.247171" height="19.7737" transform="matrix(0.866025 -0.5 0 1 103.031 107.19)" fill="black"/>
<rect width="0.247171" height="19.7737" transform="matrix(0.866025 -0.5 0 1 104.102 106.572)" fill="black"/>
<rect width="0.247171" height="19.7737" transform="matrix(0.866025 -0.5 0 1 105.172 105.954)" fill="black"/>
<rect width="0.247171" height="19.7737" transform="matrix(0.866025 -0.5 0 1 106.242 105.336)" fill="black"/>
<rect width="0.247171" height="19.7737" transform="matrix(0.866025 -0.5 0 1 107.312 104.719)" fill="black"/>
<rect width="0.247171" height="19.7737" transform="matrix(0.866025 -0.5 0 1 108.383 104.101)" fill="black"/>
<rect width="0.247171" height="19.7737" transform="matrix(0.866025 -0.5 0 1 109.453 103.482)" fill="black"/>
<rect width="0.247171" height="19.7737" transform="matrix(0.866025 -0.5 0 1 110.523 102.864)" fill="black"/>
<rect width="0.247171" height="19.7737" transform="matrix(0.866025 -0.5 0 1 111.594 102.247)" fill="black"/>
<rect width="0.247171" height="19.7737" transform="matrix(0.866025 -0.5 0 1 112.664 101.629)" fill="black"/>
<rect width="0.247171" height="19.7737" transform="matrix(0.866025 -0.5 0 1 113.734 101.011)" fill="black"/>
<rect width="0.247171" height="19.7737" transform="matrix(0.866025 -0.5 0 1 114.805 100.393)" fill="black"/>
<rect width="0.247171" height="19.7737" transform="matrix(0.866025 -0.5 0 1 115.875 99.7754)" fill="black"/>
<rect width="0.247171" height="19.7737" transform="matrix(0.866025 -0.5 0 1 116.945 99.1572)" fill="black"/>
<rect width="0.247171" height="19.7737" transform="matrix(0.866025 -0.5 0 1 118.016 98.5391)" fill="black"/>
<rect width="0.247171" height="19.7737" transform="matrix(0.866025 -0.5 0 1 119.086 97.9209)" fill="black"/>
<rect width="0.247171" height="19.7737" transform="matrix(0.866025 -0.5 0 1 120.156 97.3037)" fill="black"/>
<rect width="0.247171" height="19.7737" transform="matrix(0.866025 -0.5 0 1 121.227 96.6855)" fill="black"/>
<rect width="0.247171" height="19.7737" transform="matrix(0.866025 -0.5 0 1 122.297 96.0674)" fill="black"/>
<rect width="0.247171" height="19.7737" transform="matrix(0.866025 -0.5 0 1 123.367 95.4492)" fill="black"/>
<rect width="0.247171" height="19.7737" transform="matrix(0.866025 -0.5 0 1 124.438 94.832)" fill="black"/>
<rect width="0.247171" height="19.7737" transform="matrix(0.866025 -0.5 0 1 125.508 94.2139)" fill="black"/>
<rect width="0.247171" height="19.7737" transform="matrix(0.866025 -0.5 0 1 126.578 93.5957)" fill="black"/>
<rect width="0.247171" height="19.7737" transform="matrix(0.866025 -0.5 0 1 127.648 92.9775)" fill="black"/>
<rect width="0.247171" height="19.7737" transform="matrix(0.866025 -0.5 0 1 128.719 92.3604)" fill="black"/>
<rect width="0.247171" height="19.7737" transform="matrix(0.866025 -0.5 0 1 129.789 91.7422)" fill="black"/>
<rect width="0.247171" height="19.7737" transform="matrix(0.866025 -0.5 0 1 130.859 91.124)" fill="black"/>
<rect width="0.247171" height="19.7737" transform="matrix(0.866025 -0.5 0 1 131.93 90.5059)" fill="black"/>
<rect width="0.247171" height="19.7737" transform="matrix(0.866025 -0.5 0 1 42.0156 107.313)" fill="black"/>
<rect width="0.247171" height="19.7737" transform="matrix(0.866025 -0.5 0 1 43.0859 106.695)" fill="black"/>
<rect width="0.247171" height="19.7737" transform="matrix(0.866025 -0.5 0 1 44.1562 106.077)" fill="black"/>
<rect width="0.247171" height="19.7737" transform="matrix(0.866025 -0.5 0 1 45.2266 105.46)" fill="black"/>
<rect width="0.247171" height="19.7737" transform="matrix(0.866025 -0.5 0 1 46.2969 104.842)" fill="black"/>
<rect width="0.247171" height="19.7737" transform="matrix(0.866025 -0.5 0 1 47.3672 104.224)" fill="black"/>
<rect width="0.247171" height="19.7737" transform="matrix(0.866025 -0.5 0 1 48.4375 103.605)" fill="black"/>
<rect width="0.247171" height="19.7737" transform="matrix(0.866025 -0.5 0 1 49.5078 102.987)" fill="black"/>
<rect width="0.247171" height="19.7737" transform="matrix(0.866025 -0.5 0 1 50.5781 102.37)" fill="black"/>
<rect width="0.247171" height="19.7737" transform="matrix(0.866025 -0.5 0 1 51.6484 101.752)" fill="black"/>
<rect width="0.247171" height="19.7737" transform="matrix(0.866025 -0.5 0 1 52.7188 101.134)" fill="black"/>
<rect width="0.247171" height="19.7737" transform="matrix(0.866025 -0.5 0 1 53.7891 100.516)" fill="black"/>
<rect width="0.247171" height="19.7737" transform="matrix(0.866025 -0.5 0 1 54.8594 99.8984)" fill="black"/>
<rect width="0.247171" height="19.7737" transform="matrix(0.866025 -0.5 0 1 55.9297 99.2803)" fill="black"/>
<rect width="0.247171" height="19.7737" transform="matrix(0.866025 -0.5 0 1 57 98.6621)" fill="black"/>
<rect width="0.247171" height="19.7737" transform="matrix(0.866025 -0.5 0 1 58.0703 98.0439)" fill="black"/>
<rect width="0.247171" height="19.7737" transform="matrix(0.866025 -0.5 0 1 59.1406 97.4268)" fill="black"/>
<rect width="0.247171" height="19.7737" transform="matrix(0.866025 -0.5 0 1 60.2109 96.8086)" fill="black"/>
<rect width="0.247171" height="19.7737" transform="matrix(0.866025 -0.5 0 1 61.2812 96.1904)" fill="black"/>
<rect width="0.247171" height="19.7737" transform="matrix(0.866025 -0.5 0 1 62.3516 95.5723)" fill="black"/>
<rect width="0.247171" height="19.7737" transform="matrix(0.866025 -0.5 0 1 63.4219 94.9551)" fill="black"/>
<rect width="0.247171" height="19.7737" transform="matrix(0.866025 -0.5 0 1 64.4922 94.3369)" fill="black"/>
<rect width="0.247171" height="19.7737" transform="matrix(0.866025 -0.5 0 1 65.5625 93.7188)" fill="black"/>
<rect width="0.247171" height="19.7737" transform="matrix(0.866025 -0.5 0 1 66.6328 93.1006)" fill="black"/>
<rect width="0.247171" height="19.7737" transform="matrix(0.866025 -0.5 0 1 67.7031 92.4834)" fill="black"/>
<rect width="0.247171" height="19.7737" transform="matrix(0.866025 -0.5 0 1 68.7734 91.8652)" fill="black"/>
<rect width="0.247171" height="19.7737" transform="matrix(0.866025 -0.5 0 1 69.8438 91.2471)" fill="black"/>
<rect width="0.247171" height="19.7737" transform="matrix(0.866025 -0.5 0 1 70.9141 90.6289)" fill="black"/>
<rect width="0.247171" height="19.7737" transform="matrix(0.866025 -0.5 0 1 71.9844 90.0117)" fill="black"/>
<rect width="0.247171" height="19.7737" transform="matrix(0.866025 -0.5 0 1 73.0547 89.3936)" fill="black"/>
<rect width="0.247171" height="19.7737" transform="matrix(0.866025 -0.5 0 1 74.125 88.7754)" fill="black"/>
<rect width="0.247171" height="19.7737" transform="matrix(0.866025 -0.5 0 1 75.1953 88.1572)" fill="black"/>
<rect width="0.247171" height="19.7737" transform="matrix(0.866025 -0.5 0 1 76.2656 87.54)" fill="black"/>
<rect width="0.247171" height="19.7737" transform="matrix(0.866025 -0.5 0 1 77.3359 86.9219)" fill="black"/>
<rect width="0.247171" height="19.7737" transform="matrix(0.866025 -0.5 0 1 78.4062 86.3037)" fill="black"/>
<rect width="0.247171" height="19.7737" transform="matrix(0.866025 -0.5 0 1 79.4766 85.6855)" fill="black"/>
<rect width="0.247171" height="19.7737" transform="matrix(0.866025 -0.5 0 1 80.5469 85.0684)" fill="black"/>
<rect width="0.247171" height="19.7737" transform="matrix(0.866025 -0.5 0 1 81.6172 84.4502)" fill="black"/>
<rect width="0.247171" height="19.7737" transform="matrix(0.866025 -0.5 0 1 82.6875 83.832)" fill="black"/>
<rect width="0.247171" height="19.7737" transform="matrix(0.866025 -0.5 0 1 83.7578 83.2139)" fill="black"/>
<rect width="0.247171" height="19.7737" transform="matrix(0.866025 -0.5 0 1 84.8281 82.5967)" fill="black"/>
<rect width="0.247171" height="19.7737" transform="matrix(0.866025 -0.5 0 1 85.8984 81.9785)" fill="black"/>
<rect width="0.247171" height="19.7737" transform="matrix(0.866025 -0.5 0 1 86.9688 81.3604)" fill="black"/>
<rect width="0.247171" height="19.7737" transform="matrix(0.866025 -0.5 0 1 88.0391 80.7422)" fill="black"/>
<rect width="0.247171" height="19.7737" transform="matrix(0.866025 -0.5 0 1 89.1094 80.124)" fill="black"/>
<rect width="0.247171" height="19.7737" transform="matrix(0.866025 -0.5 0 1 90.1797 79.5068)" fill="black"/>
<rect width="0.247171" height="19.7737" transform="matrix(0.866025 -0.5 0 1 91.25 78.8887)" fill="black"/>
<rect width="0.247171" height="19.7737" transform="matrix(0.866025 -0.5 0 1 92.3203 78.2705)" fill="black"/>
<rect width="0.247171" height="19.7737" transform="matrix(0.866025 -0.5 0 1 93.3906 77.6523)" fill="black"/>
<rect width="0.247171" height="19.7737" transform="matrix(0.866025 -0.5 0 1 94.4609 77.0352)" fill="black"/>
<rect width="0.247171" height="19.7737" transform="matrix(0.866025 -0.5 0 1 95.5312 76.417)" fill="black"/>
<rect width="0.247171" height="19.7737" transform="matrix(0.866025 -0.5 0 1 96.6016 75.7988)" fill="black"/>
<rect width="0.247171" height="19.7737" transform="matrix(0.866025 -0.5 0 1 97.6719 75.1807)" fill="black"/>
<rect width="0.247171" height="19.7737" transform="matrix(0.866025 -0.5 0 1 98.7422 74.5635)" fill="black"/>
<rect width="0.247171" height="19.7737" transform="matrix(0.866025 -0.5 0 1 99.8125 73.9453)" fill="black"/>
<rect width="0.247171" height="19.7737" transform="matrix(0.866025 -0.5 0 1 100.883 73.3271)" fill="black"/>
<rect width="0.247171" height="19.7737" transform="matrix(0.866025 -0.5 0 1 101.953 72.709)" fill="black"/>
<rect width="0.247171" height="19.7737" transform="matrix(0.866025 -0.5 0 1 103.023 72.0918)" fill="black"/>
<rect width="0.247171" height="19.7737" transform="matrix(0.866025 -0.5 0 1 104.094 71.4736)" fill="black"/>
<rect width="0.247171" height="19.7737" transform="matrix(0.866025 -0.5 0 1 105.164 70.8555)" fill="black"/>
<rect width="0.247171" height="19.7737" transform="matrix(0.866025 -0.5 0 1 106.234 70.2373)" fill="black"/>
<rect width="0.247171" height="19.7737" transform="matrix(0.866025 -0.5 0 1 107.305 69.6201)" fill="black"/>
<rect width="0.247171" height="19.7737" transform="matrix(0.866025 -0.5 0 1 108.375 69.002)" fill="black"/>
<rect width="0.247171" height="19.7737" transform="matrix(0.866025 -0.5 0 1 109.445 68.3838)" fill="black"/>
<rect width="0.247171" height="19.7737" transform="matrix(0.866025 -0.5 0 1 110.516 67.7656)" fill="black"/>
<rect width="0.247171" height="19.7737" transform="matrix(0.866025 -0.5 0 1 111.586 67.1484)" fill="black"/>
<rect width="0.247171" height="19.7737" transform="matrix(0.866025 -0.5 0 1 112.656 66.5303)" fill="black"/>
<rect width="0.247171" height="19.7737" transform="matrix(0.866025 -0.5 0 1 113.727 65.9121)" fill="black"/>
<rect width="0.247171" height="19.7737" transform="matrix(0.866025 -0.5 0 1 114.797 65.2939)" fill="black"/>
<rect width="0.247171" height="19.7737" transform="matrix(0.866025 -0.5 0 1 115.867 64.6768)" fill="black"/>
<rect width="0.247171" height="19.7737" transform="matrix(0.866025 -0.5 0 1 116.938 64.0586)" fill="black"/>
<rect width="0.247171" height="19.7737" transform="matrix(0.866025 -0.5 0 1 118.008 63.4404)" fill="black"/>
<rect width="0.247171" height="19.7737" transform="matrix(0.866025 -0.5 0 1 119.078 62.8223)" fill="black"/>
<rect width="0.247171" height="19.7737" transform="matrix(0.866025 -0.5 0 1 28.1797 80.126)" fill="black"/>
<rect width="0.247171" height="19.7737" transform="matrix(0.866025 -0.5 0 1 29.25 79.5078)" fill="black"/>
<rect width="0.247171" height="19.7737" transform="matrix(0.866025 -0.5 0 1 30.3203 78.8896)" fill="black"/>
<rect width="0.247171" height="19.7737" transform="matrix(0.866025 -0.5 0 1 31.3906 78.2725)" fill="black"/>
<rect width="0.247171" height="19.7737" transform="matrix(0.866025 -0.5 0 1 32.4609 77.6543)" fill="black"/>
<rect width="0.247171" height="19.7737" transform="matrix(0.866025 -0.5 0 1 33.5312 77.0361)" fill="black"/>
<rect width="0.247171" height="19.7737" transform="matrix(0.866025 -0.5 0 1 34.6016 76.418)" fill="black"/>
<rect width="0.247171" height="19.7737" transform="matrix(0.866025 -0.5 0 1 35.6719 75.7998)" fill="black"/>
<rect width="0.247171" height="19.7737" transform="matrix(0.866025 -0.5 0 1 36.7422 75.1826)" fill="black"/>
<rect width="0.247171" height="19.7737" transform="matrix(0.866025 -0.5 0 1 37.8125 74.5645)" fill="black"/>
<rect width="0.247171" height="19.7737" transform="matrix(0.866025 -0.5 0 1 38.8828 73.9463)" fill="black"/>
<rect width="0.247171" height="19.7737" transform="matrix(0.866025 -0.5 0 1 39.9531 73.3281)" fill="black"/>
<rect width="0.247171" height="19.7737" transform="matrix(0.866025 -0.5 0 1 41.0234 72.7109)" fill="black"/>
<rect width="0.247171" height="19.7737" transform="matrix(0.866025 -0.5 0 1 42.0938 72.0928)" fill="black"/>
<rect width="0.247171" height="19.7737" transform="matrix(0.866025 -0.5 0 1 43.1641 71.4746)" fill="black"/>
<rect width="0.247171" height="19.7737" transform="matrix(0.866025 -0.5 0 1 44.2344 70.8564)" fill="black"/>
<rect width="0.247171" height="19.7737" transform="matrix(0.866025 -0.5 0 1 45.3047 70.2393)" fill="black"/>
<rect width="0.247171" height="19.7737" transform="matrix(0.866025 -0.5 0 1 46.375 69.6211)" fill="black"/>
<rect width="0.247171" height="19.7737" transform="matrix(0.866025 -0.5 0 1 47.4453 69.0029)" fill="black"/>
<rect width="0.247171" height="19.7737" transform="matrix(0.866025 -0.5 0 1 48.5156 68.3848)" fill="black"/>
<rect width="0.247171" height="19.7737" transform="matrix(0.866025 -0.5 0 1 49.5859 67.7676)" fill="black"/>
<rect width="0.247171" height="19.7737" transform="matrix(0.866025 -0.5 0 1 50.6562 67.1494)" fill="black"/>
<rect width="0.247171" height="19.7737" transform="matrix(0.866025 -0.5 0 1 51.7266 66.5312)" fill="black"/>
<rect width="0.247171" height="19.7737" transform="matrix(0.866025 -0.5 0 1 52.7969 65.9131)" fill="black"/>
<rect width="0.247171" height="19.7737" transform="matrix(0.866025 -0.5 0 1 53.8672 65.2959)" fill="black"/>
<rect width="0.247171" height="19.7737" transform="matrix(0.866025 -0.5 0 1 54.9375 64.6777)" fill="black"/>
<rect width="0.247171" height="19.7737" transform="matrix(0.866025 -0.5 0 1 56.0078 64.0596)" fill="black"/>
<rect width="0.247171" height="19.7737" transform="matrix(0.866025 -0.5 0 1 57.0781 63.4414)" fill="black"/>
<rect width="0.247171" height="19.7737" transform="matrix(0.866025 -0.5 0 1 58.1484 62.8242)" fill="black"/>
<rect width="0.247171" height="19.7737" transform="matrix(0.866025 -0.5 0 1 59.2188 62.2061)" fill="black"/>
<rect width="0.247171" height="19.7737" transform="matrix(0.866025 -0.5 0 1 60.2891 61.5879)" fill="black"/>
<rect width="0.247171" height="19.7737" transform="matrix(0.866025 -0.5 0 1 61.3594 60.9697)" fill="black"/>
<rect width="0.247171" height="19.7737" transform="matrix(0.866025 -0.5 0 1 62.4297 60.3525)" fill="black"/>
<rect width="0.247171" height="19.7737" transform="matrix(0.866025 -0.5 0 1 63.5 59.7344)" fill="black"/>
<rect width="0.247171" height="19.7737" transform="matrix(0.866025 -0.5 0 1 64.5703 59.1162)" fill="black"/>
<rect width="0.247171" height="19.7737" transform="matrix(0.866025 -0.5 0 1 65.6406 58.498)" fill="black"/>
<rect width="0.247171" height="19.7737" transform="matrix(0.866025 -0.5 0 1 66.7109 57.8809)" fill="black"/>
<rect width="0.247171" height="19.7737" transform="matrix(0.866025 -0.5 0 1 67.7812 57.2627)" fill="black"/>
<rect width="0.247171" height="19.7737" transform="matrix(0.866025 -0.5 0 1 68.8516 56.6445)" fill="black"/>
<rect width="0.247171" height="19.7737" transform="matrix(0.866025 -0.5 0 1 69.9219 56.0264)" fill="black"/>
<rect width="0.247171" height="19.7737" transform="matrix(0.866025 -0.5 0 1 70.9922 55.4092)" fill="black"/>
<rect width="0.247171" height="19.7737" transform="matrix(0.866025 -0.5 0 1 72.0625 54.791)" fill="black"/>
<rect width="0.247171" height="19.7737" transform="matrix(0.866025 -0.5 0 1 73.1328 54.1729)" fill="black"/>
<rect width="0.247171" height="19.7737" transform="matrix(0.866025 -0.5 0 1 74.2031 53.5547)" fill="black"/>
<rect width="0.247171" height="19.7737" transform="matrix(0.866025 -0.5 0 1 75.2734 52.9365)" fill="black"/>
<rect width="0.247171" height="19.7737" transform="matrix(0.866025 -0.5 0 1 76.3438 52.3193)" fill="black"/>
<rect width="0.247171" height="19.7737" transform="matrix(0.866025 -0.5 0 1 77.4141 51.7012)" fill="black"/>
<rect width="0.247171" height="19.7737" transform="matrix(0.866025 -0.5 0 1 78.4844 51.083)" fill="black"/>
<rect width="0.247171" height="19.7737" transform="matrix(0.866025 -0.5 0 1 79.5547 50.4648)" fill="black"/>
<rect width="0.247171" height="19.7737" transform="matrix(0.866025 -0.5 0 1 80.625 49.8477)" fill="black"/>
<rect width="0.247171" height="19.7737" transform="matrix(0.866025 -0.5 0 1 81.6953 49.2295)" fill="black"/>
<rect width="0.247171" height="19.7737" transform="matrix(0.866025 -0.5 0 1 82.7656 48.6113)" fill="black"/>
<rect width="0.247171" height="19.7737" transform="matrix(0.866025 -0.5 0 1 83.8359 47.9932)" fill="black"/>
<rect width="0.247171" height="19.7737" transform="matrix(0.866025 -0.5 0 1 84.9062 47.376)" fill="black"/>
<rect width="0.247171" height="19.7737" transform="matrix(0.866025 -0.5 0 1 85.9766 46.7578)" fill="black"/>
<rect width="0.247171" height="19.7737" transform="matrix(0.866025 -0.5 0 1 87.0469 46.1396)" fill="black"/>
<rect width="0.247171" height="19.7737" transform="matrix(0.866025 -0.5 0 1 88.1172 45.5215)" fill="black"/>
<rect width="0.247171" height="19.7737" transform="matrix(0.866025 -0.5 0 1 89.1875 44.9043)" fill="black"/>
<rect width="0.247171" height="19.7737" transform="matrix(0.866025 -0.5 0 1 90.2578 44.2861)" fill="black"/>
<rect width="0.247171" height="19.7737" transform="matrix(0.866025 -0.5 0 1 91.3281 43.668)" fill="black"/>
<rect width="0.247171" height="19.7737" transform="matrix(0.866025 -0.5 0 1 92.3984 43.0498)" fill="black"/>
<rect width="0.247171" height="19.7737" transform="matrix(0.866025 -0.5 0 1 93.4688 42.4326)" fill="black"/>
<rect width="0.247171" height="19.7737" transform="matrix(0.866025 -0.5 0 1 94.5391 41.8145)" fill="black"/>
<rect width="0.247171" height="19.7737" transform="matrix(0.866025 -0.5 0 1 95.6094 41.1963)" fill="black"/>
<rect width="0.247171" height="19.7737" transform="matrix(0.866025 -0.5 0 1 96.6797 40.5781)" fill="black"/>
<rect width="0.247171" height="19.7737" transform="matrix(0.866025 -0.5 0 1 97.75 39.9609)" fill="black"/>
<rect width="0.247171" height="19.7737" transform="matrix(0.866025 -0.5 0 1 98.8203 39.3428)" fill="black"/>
<rect width="0.247171" height="19.7737" transform="matrix(0.866025 -0.5 0 1 99.8906 38.7246)" fill="black"/>
<rect width="0.247171" height="19.7737" transform="matrix(0.866025 -0.5 0 1 100.961 38.1064)" fill="black"/>
<rect width="0.247171" height="19.7737" transform="matrix(0.866025 -0.5 0 1 102.031 37.4883)" fill="black"/>
<rect width="0.247171" height="19.7737" transform="matrix(0.866025 -0.5 0 1 103.102 36.8711)" fill="black"/>
<rect width="0.247171" height="19.7737" transform="matrix(0.866025 -0.5 0 1 104.172 36.2529)" fill="black"/>
<rect width="0.247171" height="19.7737" transform="matrix(0.866025 -0.5 0 1 105.242 35.6348)" fill="black"/>
<rect width="0.247171" height="19.7737" transform="matrix(0.866025 -0.5 0 1 14.3281 52.4434)" fill="black"/>
<rect width="0.247171" height="19.7737" transform="matrix(0.866025 -0.5 0 1 15.3984 51.8252)" fill="black"/>
<rect width="0.247171" height="19.7737" transform="matrix(0.866025 -0.5 0 1 16.4688 51.207)" fill="black"/>
<rect width="0.247171" height="19.7737" transform="matrix(0.866025 -0.5 0 1 17.5391 50.5898)" fill="black"/>
<rect width="0.247171" height="19.7737" transform="matrix(0.866025 -0.5 0 1 18.6094 49.9717)" fill="black"/>
<rect width="0.247171" height="19.7737" transform="matrix(0.866025 -0.5 0 1 19.6797 49.3535)" fill="black"/>
<rect width="0.247171" height="19.7737" transform="matrix(0.866025 -0.5 0 1 20.75 48.7354)" fill="black"/>
<rect width="0.247171" height="19.7737" transform="matrix(0.866025 -0.5 0 1 21.8203 48.1172)" fill="black"/>
<rect width="0.247171" height="19.7737" transform="matrix(0.866025 -0.5 0 1 22.8906 47.5)" fill="black"/>
<rect width="0.247171" height="19.7737" transform="matrix(0.866025 -0.5 0 1 23.9609 46.8818)" fill="black"/>
<rect width="0.247171" height="19.7737" transform="matrix(0.866025 -0.5 0 1 25.0312 46.2637)" fill="black"/>
<rect width="0.247171" height="19.7737" transform="matrix(0.866025 -0.5 0 1 26.1016 45.6455)" fill="black"/>
<rect width="0.247171" height="19.7737" transform="matrix(0.866025 -0.5 0 1 27.1719 45.0283)" fill="black"/>
<rect width="0.247171" height="19.7737" transform="matrix(0.866025 -0.5 0 1 28.2422 44.4102)" fill="black"/>
<rect width="0.247171" height="19.7737" transform="matrix(0.866025 -0.5 0 1 29.3125 43.792)" fill="black"/>
<rect width="0.247171" height="19.7737" transform="matrix(0.866025 -0.5 0 1 30.3828 43.1738)" fill="black"/>
<rect width="0.247171" height="19.7737" transform="matrix(0.866025 -0.5 0 1 31.4531 42.5566)" fill="black"/>
<rect width="0.247171" height="19.7737" transform="matrix(0.866025 -0.5 0 1 32.5234 41.9385)" fill="black"/>
<rect width="0.247171" height="19.7737" transform="matrix(0.866025 -0.5 0 1 33.5938 41.3203)" fill="black"/>
<rect width="0.247171" height="19.7737" transform="matrix(0.866025 -0.5 0 1 34.6641 40.7021)" fill="black"/>
<rect width="0.247171" height="19.7737" transform="matrix(0.866025 -0.5 0 1 35.7344 40.085)" fill="black"/>
<rect width="0.247171" height="19.7737" transform="matrix(0.866025 -0.5 0 1 36.8047 39.4668)" fill="black"/>
<rect width="0.247171" height="19.7737" transform="matrix(0.866025 -0.5 0 1 37.875 38.8486)" fill="black"/>
<rect width="0.247171" height="19.7737" transform="matrix(0.866025 -0.5 0 1 38.9453 38.2305)" fill="black"/>
<rect width="0.247171" height="19.7737" transform="matrix(0.866025 -0.5 0 1 40.0156 37.6133)" fill="black"/>
<rect width="0.247171" height="19.7737" transform="matrix(0.866025 -0.5 0 1 41.0859 36.9951)" fill="black"/>
<rect width="0.247171" height="19.7737" transform="matrix(0.866025 -0.5 0 1 42.1562 36.377)" fill="black"/>
<rect width="0.247171" height="19.7737" transform="matrix(0.866025 -0.5 0 1 43.2266 35.7588)" fill="black"/>
<rect width="0.247171" height="19.7737" transform="matrix(0.866025 -0.5 0 1 44.2969 35.1416)" fill="black"/>
<rect width="0.247171" height="19.7737" transform="matrix(0.866025 -0.5 0 1 45.3672 34.5234)" fill="black"/>
<rect width="0.247171" height="19.7737" transform="matrix(0.866025 -0.5 0 1 46.4375 33.9053)" fill="black"/>
<rect width="0.247171" height="19.7737" transform="matrix(0.866025 -0.5 0 1 47.5078 33.2871)" fill="black"/>
<rect width="0.247171" height="19.7737" transform="matrix(0.866025 -0.5 0 1 48.5781 32.6699)" fill="black"/>
<rect width="0.247171" height="19.7737" transform="matrix(0.866025 -0.5 0 1 49.6484 32.0518)" fill="black"/>
<rect width="0.247171" height="19.7737" transform="matrix(0.866025 -0.5 0 1 50.7188 31.4336)" fill="black"/>
<rect width="0.247171" height="19.7737" transform="matrix(0.866025 -0.5 0 1 51.7891 30.8154)" fill="black"/>
<rect width="0.247171" height="19.7737" transform="matrix(0.866025 -0.5 0 1 52.8594 30.1982)" fill="black"/>
<rect width="0.247171" height="19.7737" transform="matrix(0.866025 -0.5 0 1 53.9297 29.5801)" fill="black"/>
<rect width="0.247171" height="19.7737" transform="matrix(0.866025 -0.5 0 1 55 28.9619)" fill="black"/>
<rect width="0.247171" height="19.7737" transform="matrix(0.866025 -0.5 0 1 56.0703 28.3438)" fill="black"/>
<rect width="0.247171" height="19.7737" transform="matrix(0.866025 -0.5 0 1 57.1406 27.7266)" fill="black"/>
<rect width="0.247171" height="19.7737" transform="matrix(0.866025 -0.5 0 1 58.2109 27.1084)" fill="black"/>
<rect width="0.247171" height="19.7737" transform="matrix(0.866025 -0.5 0 1 59.2812 26.4902)" fill="black"/>
<rect width="0.247171" height="19.7737" transform="matrix(0.866025 -0.5 0 1 60.3516 25.8721)" fill="black"/>
<rect width="0.247171" height="19.7737" transform="matrix(0.866025 -0.5 0 1 61.4219 25.2539)" fill="black"/>
<rect width="0.247171" height="19.7737" transform="matrix(0.866025 -0.5 0 1 62.4922 24.6367)" fill="black"/>
<rect width="0.247171" height="19.7737" transform="matrix(0.866025 -0.5 0 1 63.5625 24.0186)" fill="black"/>
<rect width="0.247171" height="19.7737" transform="matrix(0.866025 -0.5 0 1 64.6328 23.4004)" fill="black"/>
<rect width="0.247171" height="19.7737" transform="matrix(0.866025 -0.5 0 1 65.7031 22.7822)" fill="black"/>
<rect width="0.247171" height="19.7737" transform="matrix(0.866025 -0.5 0 1 66.7734 22.165)" fill="black"/>
<rect width="0.247171" height="19.7737" transform="matrix(0.866025 -0.5 0 1 67.8438 21.5469)" fill="black"/>
<rect width="0.247171" height="19.7737" transform="matrix(0.866025 -0.5 0 1 68.9141 20.9287)" fill="black"/>
<rect width="0.247171" height="19.7737" transform="matrix(0.866025 -0.5 0 1 69.9844 20.3105)" fill="black"/>
<rect width="0.247171" height="19.7737" transform="matrix(0.866025 -0.5 0 1 71.0547 19.6934)" fill="black"/>
<rect width="0.247171" height="19.7737" transform="matrix(0.866025 -0.5 0 1 72.125 19.0752)" fill="black"/>
<rect width="0.247171" height="19.7737" transform="matrix(0.866025 -0.5 0 1 73.1953 18.457)" fill="black"/>
<rect width="0.247171" height="19.7737" transform="matrix(0.866025 -0.5 0 1 74.2656 17.8389)" fill="black"/>
<rect width="0.247171" height="19.7737" transform="matrix(0.866025 -0.5 0 1 75.3359 17.2217)" fill="black"/>
<rect width="0.247171" height="19.7737" transform="matrix(0.866025 -0.5 0 1 76.4062 16.6035)" fill="black"/>
<rect width="0.247171" height="19.7737" transform="matrix(0.866025 -0.5 0 1 77.4766 15.9854)" fill="black"/>
<rect width="0.247171" height="19.7737" transform="matrix(0.866025 -0.5 0 1 78.5469 15.3672)" fill="black"/>
<rect width="0.247171" height="19.7737" transform="matrix(0.866025 -0.5 0 1 79.6172 14.75)" fill="black"/>
<rect width="0.247171" height="19.7737" transform="matrix(0.866025 -0.5 0 1 80.6875 14.1318)" fill="black"/>
<rect width="0.247171" height="19.7737" transform="matrix(0.866025 -0.5 0 1 81.7578 13.5137)" fill="black"/>
<rect width="0.247171" height="19.7737" transform="matrix(0.866025 -0.5 0 1 82.8281 12.8955)" fill="black"/>
<rect width="0.247171" height="19.7737" transform="matrix(0.866025 -0.5 0 1 83.8984 12.2783)" fill="black"/>
<rect width="0.247171" height="19.7737" transform="matrix(0.866025 -0.5 0 1 84.9688 11.6602)" fill="black"/>
<rect width="0.247171" height="19.7737" transform="matrix(0.866025 -0.5 0 1 86.0391 11.042)" fill="black"/>
<rect width="0.247171" height="19.7737" transform="matrix(0.866025 -0.5 0 1 87.1094 10.4238)" fill="black"/>
<rect width="0.247171" height="19.7737" transform="matrix(0.866025 -0.5 0 1 88.1797 9.80664)" fill="black"/>
<rect width="0.247171" height="19.7737" transform="matrix(0.866025 -0.5 0 1 89.25 9.18848)" fill="black"/>
<rect width="0.247171" height="19.7737" transform="matrix(0.866025 -0.5 0 1 90.3203 8.57031)" fill="black"/>
<rect width="0.247171" height="19.7737" transform="matrix(0.866025 -0.5 0 1 91.3906 7.95215)" fill="black"/>
</svg>
