<svg width="133" height="155" viewBox="0 0 133 155" fill="none" xmlns="http://www.w3.org/2000/svg">
<rect x="0.214056" y="0.123585" width="89.6946" height="19.2793" transform="matrix(0.866025 -0.5 0 1 54.8959 134.686)" fill="#EDEDED" stroke="black" stroke-width="0.494341"/>
<mask id="path-2-inside-1_667_1448" fill="white">
<path d="M0 102.384L55.3662 134.35V154.123L0 122.157V102.384Z"/>
</mask>
<path d="M0 102.384L55.3662 134.35V154.123L0 122.157V102.384Z" fill="#EDEDED"/>
<path d="M55.3662 154.123V154.618L55.7944 154.865V154.37L55.3662 154.123ZM0 122.157L-0.428112 121.91V122.405L0 122.652V122.157ZM55.3662 134.35L54.9381 134.102V153.876L55.3662 154.123L55.7944 154.37V134.597L55.3662 134.35ZM55.3662 154.123V153.629L0 121.663V122.157V122.652L55.3662 154.618V154.123ZM0 122.157L0.428112 122.405V102.631L0 102.384L-0.428112 102.137V121.91L0 122.157Z" fill="black" mask="url(#path-2-inside-1_667_1448)"/>
<mask id="path-4-inside-2_667_1448" fill="white">
<path d="M0 83.2471L42.019 107.507V127.28L0 103.021V83.2471Z"/>
</mask>
<path d="M0 83.2471L42.019 107.507V127.28L0 103.021V83.2471Z" fill="#EDEDED"/>
<path d="M42.019 107.507L41.5909 107.26V127.033L42.019 127.28L42.4471 127.528V107.754L42.019 107.507ZM0 103.021L0.428112 103.268V83.4942L0 83.2471L-0.428112 82.9999V102.774L0 103.021Z" fill="black" mask="url(#path-4-inside-2_667_1448)"/>
<mask id="path-6-inside-3_667_1448" fill="white">
<path d="M0 63.8242L28.1775 80.0925V99.8661L0 83.5979V63.8242Z"/>
</mask>
<path d="M0 63.8242L28.1775 80.0925V99.8661L0 83.5979V63.8242Z" fill="#EDEDED"/>
<path d="M28.1775 80.0925L27.7493 79.8453V99.619L28.1775 99.8661L28.6056 100.113V80.3397L28.1775 80.0925ZM0 83.5979L0.428112 83.845V64.0714L0 63.8242L-0.428112 63.577V83.3507L0 83.5979Z" fill="black" mask="url(#path-6-inside-3_667_1448)"/>
<rect x="0.214056" y="0.123585" width="88.553" height="19.2793" transform="matrix(0.866025 -0.5 0 1 42.0443 107.343)" fill="#EDEDED" stroke="black" stroke-width="0.494341"/>
<rect x="0.214056" y="0.123585" width="89.1238" height="19.2793" transform="matrix(0.866025 -0.5 0 1 27.7162 80.024)" fill="#EDEDED" stroke="black" stroke-width="0.494341"/>
<rect x="0.214056" y="0.123585" width="89.1238" height="19.2793" transform="matrix(0.866025 -0.5 0 1 13.8724 52.8346)" fill="#EDEDED" stroke="black" stroke-width="0.494341"/>
<mask id="path-11-inside-4_667_1448" fill="white">
<path d="M0 44.5322L14.3359 52.8091V72.5827L0 64.3059V44.5322Z"/>
</mask>
<path d="M0 44.5322L14.3359 52.8091V72.5827L0 64.3059V44.5322Z" fill="#EDEDED"/>
<path d="M0 44.5322V44.0379L-0.428112 43.7907V44.2851L0 44.5322ZM14.3359 52.8091L14.764 53.0562V52.5619L14.3359 52.3147V52.8091ZM0 44.5322V45.0266L14.3359 53.3034V52.8091V52.3147L0 44.0379V44.5322ZM14.3359 52.8091L13.9078 52.5619V72.3355L14.3359 72.5827L14.764 72.8299V53.0562L14.3359 52.8091ZM0 64.3059L0.428112 64.5531V44.7794L0 44.5322L-0.428112 44.2851V64.0587L0 64.3059Z" fill="black" mask="url(#path-11-inside-4_667_1448)"/>
<rect x="0.428112" width="89.3207" height="15.3246" transform="matrix(0.866025 -0.5 0.866025 0.5 41.573 127.308)" fill="#EDEDED" stroke="black" stroke-width="0.494341"/>
<rect x="0.428112" width="88.6686" height="15.3246" transform="matrix(0.866025 -0.5 0.866025 0.5 28.0574 99.7219)" fill="#EDEDED" stroke="black" stroke-width="0.494341"/>
<rect x="0.428112" width="89.1311" height="15.3246" transform="matrix(0.866025 -0.5 0.866025 0.5 13.9011 72.4367)" fill="#EDEDED" stroke="black" stroke-width="0.494341"/>
<rect x="0.428112" width="89.5693" height="15.3246" transform="matrix(0.866025 -0.5 0.866025 0.5 0.0573562 45.2463)" fill="#EDEDED" stroke="black" stroke-width="0.494341"/>
<rect width="87.9206" height="18.1036" transform="matrix(0.866025 -0.5 0 1 56 134.839)" fill="#EDEDED"/>
<rect width="0.247171" height="19.7737" transform="matrix(0.866025 -0.5 0 1 56 134.004)" fill="black"/>
<rect width="0.247171" height="19.7737" transform="matrix(0.866025 -0.5 0 1 57.0703 133.386)" fill="black"/>
<rect width="0.247171" height="19.7737" transform="matrix(0.866025 -0.5 0 1 58.1406 132.768)" fill="black"/>
<rect width="0.247171" height="19.7737" transform="matrix(0.866025 -0.5 0 1 59.2109 132.15)" fill="black"/>
<rect width="0.247171" height="19.7737" transform="matrix(0.866025 -0.5 0 1 60.2812 131.532)" fill="black"/>
<rect width="0.247171" height="19.7737" transform="matrix(0.866025 -0.5 0 1 61.3516 130.914)" fill="black"/>
<rect width="0.247171" height="19.7737" transform="matrix(0.866025 -0.5 0 1 62.4219 130.296)" fill="black"/>
<rect width="0.247171" height="19.7737" transform="matrix(0.866025 -0.5 0 1 63.4922 129.679)" fill="black"/>
<rect width="0.247171" height="19.7737" transform="matrix(0.866025 -0.5 0 1 64.5625 129.061)" fill="black"/>
<rect width="0.247171" height="19.7737" transform="matrix(0.866025 -0.5 0 1 65.6328 128.442)" fill="black"/>
<rect width="0.247171" height="19.7737" transform="matrix(0.866025 -0.5 0 1 66.7031 127.824)" fill="black"/>
<rect width="0.247171" height="19.7737" transform="matrix(0.866025 -0.5 0 1 67.7734 127.207)" fill="black"/>
<rect width="0.247171" height="19.7737" transform="matrix(0.866025 -0.5 0 1 68.8438 126.589)" fill="black"/>
<rect width="0.247171" height="19.7737" transform="matrix(0.866025 -0.5 0 1 69.9141 125.971)" fill="black"/>
<rect width="0.247171" height="19.7737" transform="matrix(0.866025 -0.5 0 1 70.9844 125.353)" fill="black"/>
<rect width="0.247171" height="19.7737" transform="matrix(0.866025 -0.5 0 1 72.0547 124.735)" fill="black"/>
<rect width="0.247171" height="19.7737" transform="matrix(0.866025 -0.5 0 1 73.125 124.117)" fill="black"/>
<rect width="0.247171" height="19.7737" transform="matrix(0.866025 -0.5 0 1 74.1953 123.499)" fill="black"/>
<rect width="0.247171" height="19.7737" transform="matrix(0.866025 -0.5 0 1 75.2656 122.881)" fill="black"/>
<rect width="0.247171" height="19.7737" transform="matrix(0.866025 -0.5 0 1 76.3359 122.264)" fill="black"/>
<rect width="0.247171" height="19.7737" transform="matrix(0.866025 -0.5 0 1 77.4062 121.646)" fill="black"/>
<rect width="0.247171" height="19.7737" transform="matrix(0.866025 -0.5 0 1 78.4766 121.027)" fill="black"/>
<rect width="0.247171" height="19.7737" transform="matrix(0.866025 -0.5 0 1 79.5469 120.409)" fill="black"/>
<rect width="0.247171" height="19.7737" transform="matrix(0.866025 -0.5 0 1 80.6172 119.792)" fill="black"/>
<rect width="0.247171" height="19.7737" transform="matrix(0.866025 -0.5 0 1 81.6875 119.174)" fill="black"/>
<rect width="0.247171" height="19.7737" transform="matrix(0.866025 -0.5 0 1 82.7578 118.556)" fill="black"/>
<rect width="0.247171" height="19.7737" transform="matrix(0.866025 -0.5 0 1 83.8281 117.938)" fill="black"/>
<rect width="0.247171" height="19.7737" transform="matrix(0.866025 -0.5 0 1 84.8984 117.32)" fill="black"/>
<rect width="0.247171" height="19.7737" transform="matrix(0.866025 -0.5 0 1 85.9688 116.702)" fill="black"/>
<rect width="0.247171" height="19.7737" transform="matrix(0.866025 -0.5 0 1 87.0391 116.084)" fill="black"/>
<rect width="0.247171" height="19.7737" transform="matrix(0.866025 -0.5 0 1 88.1094 115.466)" fill="black"/>
<rect width="0.247171" height="19.7737" transform="matrix(0.866025 -0.5 0 1 89.1797 114.848)" fill="black"/>
<rect width="0.247171" height="19.7737" transform="matrix(0.866025 -0.5 0 1 90.25 114.23)" fill="black"/>
<rect width="0.247171" height="19.7737" transform="matrix(0.866025 -0.5 0 1 91.3203 113.612)" fill="black"/>
<rect width="0.247171" height="19.7737" transform="matrix(0.866025 -0.5 0 1 92.3906 112.994)" fill="black"/>
<rect width="0.247171" height="19.7737" transform="matrix(0.866025 -0.5 0 1 93.4609 112.376)" fill="black"/>
<rect width="0.247171" height="19.7737" transform="matrix(0.866025 -0.5 0 1 94.5312 111.759)" fill="black"/>
<rect width="0.247171" height="19.7737" transform="matrix(0.866025 -0.5 0 1 95.6016 111.141)" fill="black"/>
<rect width="0.247171" height="19.7737" transform="matrix(0.866025 -0.5 0 1 96.6719 110.522)" fill="black"/>
<rect width="0.247171" height="19.7737" transform="matrix(0.866025 -0.5 0 1 97.7422 109.904)" fill="black"/>
<rect width="0.247171" height="19.7737" transform="matrix(0.866025 -0.5 0 1 98.8125 109.287)" fill="black"/>
<rect width="0.247171" height="19.7737" transform="matrix(0.866025 -0.5 0 1 99.8828 108.669)" fill="black"/>
<rect width="0.247171" height="19.7737" transform="matrix(0.866025 -0.5 0 1 100.953 108.051)" fill="black"/>
<rect width="0.247171" height="19.7737" transform="matrix(0.866025 -0.5 0 1 102.023 107.433)" fill="black"/>
<rect width="0.247171" height="19.7737" transform="matrix(0.866025 -0.5 0 1 103.094 106.815)" fill="black"/>
<rect width="0.247171" height="19.7737" transform="matrix(0.866025 -0.5 0 1 104.164 106.197)" fill="black"/>
<rect width="0.247171" height="19.7737" transform="matrix(0.866025 -0.5 0 1 105.234 105.579)" fill="black"/>
<rect width="0.247171" height="19.7737" transform="matrix(0.866025 -0.5 0 1 106.305 104.961)" fill="black"/>
<rect width="0.247171" height="19.7737" transform="matrix(0.866025 -0.5 0 1 107.375 104.344)" fill="black"/>
<rect width="0.247171" height="19.7737" transform="matrix(0.866025 -0.5 0 1 108.445 103.726)" fill="black"/>
<rect width="0.247171" height="19.7737" transform="matrix(0.866025 -0.5 0 1 109.516 103.107)" fill="black"/>
<rect width="0.247171" height="19.7737" transform="matrix(0.866025 -0.5 0 1 110.586 102.489)" fill="black"/>
<rect width="0.247171" height="19.7737" transform="matrix(0.866025 -0.5 0 1 111.656 101.872)" fill="black"/>
<rect width="0.247171" height="19.7737" transform="matrix(0.866025 -0.5 0 1 112.727 101.254)" fill="black"/>
<rect width="0.247171" height="19.7737" transform="matrix(0.866025 -0.5 0 1 113.797 100.636)" fill="black"/>
<rect width="0.247171" height="19.7737" transform="matrix(0.866025 -0.5 0 1 114.867 100.018)" fill="black"/>
<rect width="0.247171" height="19.7737" transform="matrix(0.866025 -0.5 0 1 115.938 99.4004)" fill="black"/>
<rect width="0.247171" height="19.7737" transform="matrix(0.866025 -0.5 0 1 117.008 98.7822)" fill="black"/>
<rect width="0.247171" height="19.7737" transform="matrix(0.866025 -0.5 0 1 118.078 98.1641)" fill="black"/>
<rect width="0.247171" height="19.7737" transform="matrix(0.866025 -0.5 0 1 119.148 97.5459)" fill="black"/>
<rect width="0.247171" height="19.7737" transform="matrix(0.866025 -0.5 0 1 120.219 96.9287)" fill="black"/>
<rect width="0.247171" height="19.7737" transform="matrix(0.866025 -0.5 0 1 121.289 96.3105)" fill="black"/>
<rect width="0.247171" height="19.7737" transform="matrix(0.866025 -0.5 0 1 122.359 95.6924)" fill="black"/>
<rect width="0.247171" height="19.7737" transform="matrix(0.866025 -0.5 0 1 123.43 95.0742)" fill="black"/>
<rect width="0.247171" height="19.7737" transform="matrix(0.866025 -0.5 0 1 124.5 94.4561)" fill="black"/>
<rect width="0.247171" height="19.7737" transform="matrix(0.866025 -0.5 0 1 125.57 93.8389)" fill="black"/>
<rect width="0.247171" height="19.7737" transform="matrix(0.866025 -0.5 0 1 126.641 93.2207)" fill="black"/>
<rect width="0.247171" height="19.7737" transform="matrix(0.866025 -0.5 0 1 127.711 92.6025)" fill="black"/>
<rect width="0.247171" height="19.7737" transform="matrix(0.866025 -0.5 0 1 128.781 91.9844)" fill="black"/>
<rect width="0.247171" height="19.7737" transform="matrix(0.866025 -0.5 0 1 129.852 91.3672)" fill="black"/>
<rect width="0.247171" height="19.7737" transform="matrix(0.866025 -0.5 0 1 130.922 90.749)" fill="black"/>
<rect width="89.2286" height="18.785" transform="matrix(0.866025 -0.5 0 1 42.0156 107.81)" fill="#EDEDED"/>
<rect width="0.247171" height="19.7737" transform="matrix(0.866025 -0.5 0 1 42.0156 107.315)" fill="black"/>
<rect width="0.247171" height="19.7737" transform="matrix(0.866025 -0.5 0 1 43.0859 106.697)" fill="black"/>
<rect width="0.247171" height="19.7737" transform="matrix(0.866025 -0.5 0 1 44.1562 106.079)" fill="black"/>
<rect width="0.247171" height="19.7737" transform="matrix(0.866025 -0.5 0 1 45.2266 105.462)" fill="black"/>
<rect width="0.247171" height="19.7737" transform="matrix(0.866025 -0.5 0 1 46.2969 104.844)" fill="black"/>
<rect width="0.247171" height="19.7737" transform="matrix(0.866025 -0.5 0 1 47.3672 104.226)" fill="black"/>
<rect width="0.247171" height="19.7737" transform="matrix(0.866025 -0.5 0 1 48.4375 103.607)" fill="black"/>
<rect width="0.247171" height="19.7737" transform="matrix(0.866025 -0.5 0 1 49.5078 102.989)" fill="black"/>
<rect width="0.247171" height="19.7737" transform="matrix(0.866025 -0.5 0 1 50.5781 102.372)" fill="black"/>
<rect width="0.247171" height="19.7737" transform="matrix(0.866025 -0.5 0 1 51.6484 101.754)" fill="black"/>
<rect width="0.247171" height="19.7737" transform="matrix(0.866025 -0.5 0 1 52.7188 101.136)" fill="black"/>
<rect width="0.247171" height="19.7737" transform="matrix(0.866025 -0.5 0 1 53.7891 100.518)" fill="black"/>
<rect width="0.247171" height="19.7737" transform="matrix(0.866025 -0.5 0 1 54.8594 99.9004)" fill="black"/>
<rect width="0.247171" height="19.7737" transform="matrix(0.866025 -0.5 0 1 55.9297 99.2822)" fill="black"/>
<rect width="0.247171" height="19.7737" transform="matrix(0.866025 -0.5 0 1 57 98.6641)" fill="black"/>
<rect width="0.247171" height="19.7737" transform="matrix(0.866025 -0.5 0 1 58.0703 98.0459)" fill="black"/>
<rect width="0.247171" height="19.7737" transform="matrix(0.866025 -0.5 0 1 59.1406 97.4287)" fill="black"/>
<rect width="0.247171" height="19.7737" transform="matrix(0.866025 -0.5 0 1 60.2109 96.8105)" fill="black"/>
<rect width="0.247171" height="19.7737" transform="matrix(0.866025 -0.5 0 1 61.2812 96.1924)" fill="black"/>
<rect width="0.247171" height="19.7737" transform="matrix(0.866025 -0.5 0 1 62.3516 95.5742)" fill="black"/>
<rect width="0.247171" height="19.7737" transform="matrix(0.866025 -0.5 0 1 63.4219 94.957)" fill="black"/>
<rect width="0.247171" height="19.7737" transform="matrix(0.866025 -0.5 0 1 64.4922 94.3389)" fill="black"/>
<rect width="0.247171" height="19.7737" transform="matrix(0.866025 -0.5 0 1 65.5625 93.7207)" fill="black"/>
<rect width="0.247171" height="19.7737" transform="matrix(0.866025 -0.5 0 1 66.6328 93.1025)" fill="black"/>
<rect width="0.247171" height="19.7737" transform="matrix(0.866025 -0.5 0 1 67.7031 92.4854)" fill="black"/>
<rect width="0.247171" height="19.7737" transform="matrix(0.866025 -0.5 0 1 68.7734 91.8672)" fill="black"/>
<rect width="0.247171" height="19.7737" transform="matrix(0.866025 -0.5 0 1 69.8438 91.249)" fill="black"/>
<rect width="0.247171" height="19.7737" transform="matrix(0.866025 -0.5 0 1 70.9141 90.6309)" fill="black"/>
<rect width="0.247171" height="19.7737" transform="matrix(0.866025 -0.5 0 1 71.9844 90.0137)" fill="black"/>
<rect width="0.247171" height="19.7737" transform="matrix(0.866025 -0.5 0 1 73.0547 89.3955)" fill="black"/>
<rect width="0.247171" height="19.7737" transform="matrix(0.866025 -0.5 0 1 74.125 88.7773)" fill="black"/>
<rect width="0.247171" height="19.7737" transform="matrix(0.866025 -0.5 0 1 75.1953 88.1592)" fill="black"/>
<rect width="0.247171" height="19.7737" transform="matrix(0.866025 -0.5 0 1 76.2656 87.542)" fill="black"/>
<rect width="0.247171" height="19.7737" transform="matrix(0.866025 -0.5 0 1 77.3359 86.9238)" fill="black"/>
<rect width="0.247171" height="19.7737" transform="matrix(0.866025 -0.5 0 1 78.4062 86.3057)" fill="black"/>
<rect width="0.247171" height="19.7737" transform="matrix(0.866025 -0.5 0 1 79.4766 85.6875)" fill="black"/>
<rect width="0.247171" height="19.7737" transform="matrix(0.866025 -0.5 0 1 80.5469 85.0703)" fill="black"/>
<rect width="0.247171" height="19.7737" transform="matrix(0.866025 -0.5 0 1 81.6172 84.4521)" fill="black"/>
<rect width="0.247171" height="19.7737" transform="matrix(0.866025 -0.5 0 1 82.6875 83.834)" fill="black"/>
<rect width="0.247171" height="19.7737" transform="matrix(0.866025 -0.5 0 1 83.7578 83.2158)" fill="black"/>
<rect width="0.247171" height="19.7737" transform="matrix(0.866025 -0.5 0 1 84.8281 82.5986)" fill="black"/>
<rect width="0.247171" height="19.7737" transform="matrix(0.866025 -0.5 0 1 85.8984 81.9805)" fill="black"/>
<rect width="0.247171" height="19.7737" transform="matrix(0.866025 -0.5 0 1 86.9688 81.3623)" fill="black"/>
<rect width="0.247171" height="19.7737" transform="matrix(0.866025 -0.5 0 1 88.0391 80.7441)" fill="black"/>
<rect width="0.247171" height="19.7737" transform="matrix(0.866025 -0.5 0 1 89.1094 80.126)" fill="black"/>
<rect width="0.247171" height="19.7737" transform="matrix(0.866025 -0.5 0 1 90.1797 79.5088)" fill="black"/>
<rect width="0.247171" height="19.7737" transform="matrix(0.866025 -0.5 0 1 91.25 78.8906)" fill="black"/>
<rect width="0.247171" height="19.7737" transform="matrix(0.866025 -0.5 0 1 92.3203 78.2725)" fill="black"/>
<rect width="0.247171" height="19.7737" transform="matrix(0.866025 -0.5 0 1 93.3906 77.6543)" fill="black"/>
<rect width="0.247171" height="19.7737" transform="matrix(0.866025 -0.5 0 1 94.4609 77.0371)" fill="black"/>
<rect width="0.247171" height="19.7737" transform="matrix(0.866025 -0.5 0 1 95.5312 76.4189)" fill="black"/>
<rect width="0.247171" height="19.7737" transform="matrix(0.866025 -0.5 0 1 96.6016 75.8008)" fill="black"/>
<rect width="0.247171" height="19.7737" transform="matrix(0.866025 -0.5 0 1 97.6719 75.1826)" fill="black"/>
<rect width="0.247171" height="19.7737" transform="matrix(0.866025 -0.5 0 1 98.7422 74.5654)" fill="black"/>
<rect width="0.247171" height="19.7737" transform="matrix(0.866025 -0.5 0 1 99.8125 73.9473)" fill="black"/>
<rect width="0.247171" height="19.7737" transform="matrix(0.866025 -0.5 0 1 100.883 73.3291)" fill="black"/>
<rect width="0.247171" height="19.7737" transform="matrix(0.866025 -0.5 0 1 101.953 72.7109)" fill="black"/>
<rect width="0.247171" height="19.7737" transform="matrix(0.866025 -0.5 0 1 103.023 72.0938)" fill="black"/>
<rect width="0.247171" height="19.7737" transform="matrix(0.866025 -0.5 0 1 104.094 71.4756)" fill="black"/>
<rect width="0.247171" height="19.7737" transform="matrix(0.866025 -0.5 0 1 105.164 70.8574)" fill="black"/>
<rect width="0.247171" height="19.7737" transform="matrix(0.866025 -0.5 0 1 106.234 70.2393)" fill="black"/>
<rect width="0.247171" height="19.7737" transform="matrix(0.866025 -0.5 0 1 107.305 69.6221)" fill="black"/>
<rect width="0.247171" height="19.7737" transform="matrix(0.866025 -0.5 0 1 108.375 69.0039)" fill="black"/>
<rect width="0.247171" height="19.7737" transform="matrix(0.866025 -0.5 0 1 109.445 68.3857)" fill="black"/>
<rect width="0.247171" height="19.7737" transform="matrix(0.866025 -0.5 0 1 110.516 67.7676)" fill="black"/>
<rect width="0.247171" height="19.7737" transform="matrix(0.866025 -0.5 0 1 111.586 67.1504)" fill="black"/>
<rect width="0.247171" height="19.7737" transform="matrix(0.866025 -0.5 0 1 112.656 66.5322)" fill="black"/>
<rect width="0.247171" height="19.7737" transform="matrix(0.866025 -0.5 0 1 113.727 65.9141)" fill="black"/>
<rect width="0.247171" height="19.7737" transform="matrix(0.866025 -0.5 0 1 114.797 65.2959)" fill="black"/>
<rect width="0.247171" height="19.7737" transform="matrix(0.866025 -0.5 0 1 115.867 64.6787)" fill="black"/>
<rect width="0.247171" height="19.7737" transform="matrix(0.866025 -0.5 0 1 116.938 64.0605)" fill="black"/>
<rect width="0.247171" height="19.7737" transform="matrix(0.866025 -0.5 0 1 118.008 63.4424)" fill="black"/>
<rect width="0.247171" height="19.7737" transform="matrix(0.866025 -0.5 0 1 119.078 62.8242)" fill="black"/>
<rect width="89.2286" height="18.785" transform="matrix(0.866025 -0.5 0 1 28.1797 80.6211)" fill="#EDEDED"/>
<rect width="0.247171" height="19.7737" transform="matrix(0.866025 -0.5 0 1 28.1797 80.127)" fill="black"/>
<rect width="0.247171" height="19.7737" transform="matrix(0.866025 -0.5 0 1 29.25 79.5088)" fill="black"/>
<rect width="0.247171" height="19.7737" transform="matrix(0.866025 -0.5 0 1 30.3203 78.8906)" fill="black"/>
<rect width="0.247171" height="19.7737" transform="matrix(0.866025 -0.5 0 1 31.3906 78.2734)" fill="black"/>
<rect width="0.247171" height="19.7737" transform="matrix(0.866025 -0.5 0 1 32.4609 77.6553)" fill="black"/>
<rect width="0.247171" height="19.7737" transform="matrix(0.866025 -0.5 0 1 33.5312 77.0371)" fill="black"/>
<rect width="0.247171" height="19.7737" transform="matrix(0.866025 -0.5 0 1 34.6016 76.4189)" fill="black"/>
<rect width="0.247171" height="19.7737" transform="matrix(0.866025 -0.5 0 1 35.6719 75.8008)" fill="black"/>
<rect width="0.247171" height="19.7737" transform="matrix(0.866025 -0.5 0 1 36.7422 75.1836)" fill="black"/>
<rect width="0.247171" height="19.7737" transform="matrix(0.866025 -0.5 0 1 37.8125 74.5654)" fill="black"/>
<rect width="0.247171" height="19.7737" transform="matrix(0.866025 -0.5 0 1 38.8828 73.9473)" fill="black"/>
<rect width="0.247171" height="19.7737" transform="matrix(0.866025 -0.5 0 1 39.9531 73.3291)" fill="black"/>
<rect width="0.247171" height="19.7737" transform="matrix(0.866025 -0.5 0 1 41.0234 72.7119)" fill="black"/>
<rect width="0.247171" height="19.7737" transform="matrix(0.866025 -0.5 0 1 42.0938 72.0938)" fill="black"/>
<rect width="0.247171" height="19.7737" transform="matrix(0.866025 -0.5 0 1 43.1641 71.4756)" fill="black"/>
<rect width="0.247171" height="19.7737" transform="matrix(0.866025 -0.5 0 1 44.2344 70.8574)" fill="black"/>
<rect width="0.247171" height="19.7737" transform="matrix(0.866025 -0.5 0 1 45.3047 70.2402)" fill="black"/>
<rect width="0.247171" height="19.7737" transform="matrix(0.866025 -0.5 0 1 46.375 69.6221)" fill="black"/>
<rect width="0.247171" height="19.7737" transform="matrix(0.866025 -0.5 0 1 47.4453 69.0039)" fill="black"/>
<rect width="0.247171" height="19.7737" transform="matrix(0.866025 -0.5 0 1 48.5156 68.3857)" fill="black"/>
<rect width="0.247171" height="19.7737" transform="matrix(0.866025 -0.5 0 1 49.5859 67.7686)" fill="black"/>
<rect width="0.247171" height="19.7737" transform="matrix(0.866025 -0.5 0 1 50.6562 67.1504)" fill="black"/>
<rect width="0.247171" height="19.7737" transform="matrix(0.866025 -0.5 0 1 51.7266 66.5322)" fill="black"/>
<rect width="0.247171" height="19.7737" transform="matrix(0.866025 -0.5 0 1 52.7969 65.9141)" fill="black"/>
<rect width="0.247171" height="19.7737" transform="matrix(0.866025 -0.5 0 1 53.8672 65.2969)" fill="black"/>
<rect width="0.247171" height="19.7737" transform="matrix(0.866025 -0.5 0 1 54.9375 64.6787)" fill="black"/>
<rect width="0.247171" height="19.7737" transform="matrix(0.866025 -0.5 0 1 56.0078 64.0605)" fill="black"/>
<rect width="0.247171" height="19.7737" transform="matrix(0.866025 -0.5 0 1 57.0781 63.4424)" fill="black"/>
<rect width="0.247171" height="19.7737" transform="matrix(0.866025 -0.5 0 1 58.1484 62.8252)" fill="black"/>
<rect width="0.247171" height="19.7737" transform="matrix(0.866025 -0.5 0 1 59.2188 62.207)" fill="black"/>
<rect width="0.247171" height="19.7737" transform="matrix(0.866025 -0.5 0 1 60.2891 61.5889)" fill="black"/>
<rect width="0.247171" height="19.7737" transform="matrix(0.866025 -0.5 0 1 61.3594 60.9707)" fill="black"/>
<rect width="0.247171" height="19.7737" transform="matrix(0.866025 -0.5 0 1 62.4297 60.3535)" fill="black"/>
<rect width="0.247171" height="19.7737" transform="matrix(0.866025 -0.5 0 1 63.5 59.7354)" fill="black"/>
<rect width="0.247171" height="19.7737" transform="matrix(0.866025 -0.5 0 1 64.5703 59.1172)" fill="black"/>
<rect width="0.247171" height="19.7737" transform="matrix(0.866025 -0.5 0 1 65.6406 58.499)" fill="black"/>
<rect width="0.247171" height="19.7737" transform="matrix(0.866025 -0.5 0 1 66.7109 57.8818)" fill="black"/>
<rect width="0.247171" height="19.7737" transform="matrix(0.866025 -0.5 0 1 67.7812 57.2637)" fill="black"/>
<rect width="0.247171" height="19.7737" transform="matrix(0.866025 -0.5 0 1 68.8516 56.6455)" fill="black"/>
<rect width="0.247171" height="19.7737" transform="matrix(0.866025 -0.5 0 1 69.9219 56.0273)" fill="black"/>
<rect width="0.247171" height="19.7737" transform="matrix(0.866025 -0.5 0 1 70.9922 55.4102)" fill="black"/>
<rect width="0.247171" height="19.7737" transform="matrix(0.866025 -0.5 0 1 72.0625 54.792)" fill="black"/>
<rect width="0.247171" height="19.7737" transform="matrix(0.866025 -0.5 0 1 73.1328 54.1738)" fill="black"/>
<rect width="0.247171" height="19.7737" transform="matrix(0.866025 -0.5 0 1 74.2031 53.5557)" fill="black"/>
<rect width="0.247171" height="19.7737" transform="matrix(0.866025 -0.5 0 1 75.2734 52.9375)" fill="black"/>
<rect width="0.247171" height="19.7737" transform="matrix(0.866025 -0.5 0 1 76.3438 52.3203)" fill="black"/>
<rect width="0.247171" height="19.7737" transform="matrix(0.866025 -0.5 0 1 77.4141 51.7021)" fill="black"/>
<rect width="0.247171" height="19.7737" transform="matrix(0.866025 -0.5 0 1 78.4844 51.084)" fill="black"/>
<rect width="0.247171" height="19.7737" transform="matrix(0.866025 -0.5 0 1 79.5547 50.4658)" fill="black"/>
<rect width="0.247171" height="19.7737" transform="matrix(0.866025 -0.5 0 1 80.625 49.8486)" fill="black"/>
<rect width="0.247171" height="19.7737" transform="matrix(0.866025 -0.5 0 1 81.6953 49.2305)" fill="black"/>
<rect width="0.247171" height="19.7737" transform="matrix(0.866025 -0.5 0 1 82.7656 48.6123)" fill="black"/>
<rect width="0.247171" height="19.7737" transform="matrix(0.866025 -0.5 0 1 83.8359 47.9941)" fill="black"/>
<rect width="0.247171" height="19.7737" transform="matrix(0.866025 -0.5 0 1 84.9062 47.377)" fill="black"/>
<rect width="0.247171" height="19.7737" transform="matrix(0.866025 -0.5 0 1 85.9766 46.7588)" fill="black"/>
<rect width="0.247171" height="19.7737" transform="matrix(0.866025 -0.5 0 1 87.0469 46.1406)" fill="black"/>
<rect width="0.247171" height="19.7737" transform="matrix(0.866025 -0.5 0 1 88.1172 45.5225)" fill="black"/>
<rect width="0.247171" height="19.7737" transform="matrix(0.866025 -0.5 0 1 89.1875 44.9053)" fill="black"/>
<rect width="0.247171" height="19.7737" transform="matrix(0.866025 -0.5 0 1 90.2578 44.2871)" fill="black"/>
<rect width="0.247171" height="19.7737" transform="matrix(0.866025 -0.5 0 1 91.3281 43.6689)" fill="black"/>
<rect width="0.247171" height="19.7737" transform="matrix(0.866025 -0.5 0 1 92.3984 43.0508)" fill="black"/>
<rect width="0.247171" height="19.7737" transform="matrix(0.866025 -0.5 0 1 93.4688 42.4336)" fill="black"/>
<rect width="0.247171" height="19.7737" transform="matrix(0.866025 -0.5 0 1 94.5391 41.8154)" fill="black"/>
<rect width="0.247171" height="19.7737" transform="matrix(0.866025 -0.5 0 1 95.6094 41.1973)" fill="black"/>
<rect width="0.247171" height="19.7737" transform="matrix(0.866025 -0.5 0 1 96.6797 40.5791)" fill="black"/>
<rect width="0.247171" height="19.7737" transform="matrix(0.866025 -0.5 0 1 97.75 39.9619)" fill="black"/>
<rect width="0.247171" height="19.7737" transform="matrix(0.866025 -0.5 0 1 98.8203 39.3438)" fill="black"/>
<rect width="0.247171" height="19.7737" transform="matrix(0.866025 -0.5 0 1 99.8906 38.7256)" fill="black"/>
<rect width="0.247171" height="19.7737" transform="matrix(0.866025 -0.5 0 1 100.961 38.1074)" fill="black"/>
<rect width="0.247171" height="19.7737" transform="matrix(0.866025 -0.5 0 1 102.031 37.4893)" fill="black"/>
<rect width="0.247171" height="19.7737" transform="matrix(0.866025 -0.5 0 1 103.102 36.8721)" fill="black"/>
<rect width="0.247171" height="19.7737" transform="matrix(0.866025 -0.5 0 1 104.172 36.2539)" fill="black"/>
<rect width="0.247171" height="19.7737" transform="matrix(0.866025 -0.5 0 1 105.242 35.6357)" fill="black"/>
<rect width="89.2286" height="18.785" transform="matrix(0.866025 -0.5 0 1 14.3281 52.9385)" fill="#EDEDED"/>
<rect width="0.247171" height="19.7737" transform="matrix(0.866025 -0.5 0 1 14.3281 52.4443)" fill="black"/>
<rect width="0.247171" height="19.7737" transform="matrix(0.866025 -0.5 0 1 15.3984 51.8262)" fill="black"/>
<rect width="0.247171" height="19.7737" transform="matrix(0.866025 -0.5 0 1 16.4688 51.208)" fill="black"/>
<rect width="0.247171" height="19.7737" transform="matrix(0.866025 -0.5 0 1 17.5391 50.5908)" fill="black"/>
<rect width="0.247171" height="19.7737" transform="matrix(0.866025 -0.5 0 1 18.6094 49.9727)" fill="black"/>
<rect width="0.247171" height="19.7737" transform="matrix(0.866025 -0.5 0 1 19.6797 49.3545)" fill="black"/>
<rect width="0.247171" height="19.7737" transform="matrix(0.866025 -0.5 0 1 20.75 48.7363)" fill="black"/>
<rect width="0.247171" height="19.7737" transform="matrix(0.866025 -0.5 0 1 21.8203 48.1182)" fill="black"/>
<rect width="0.247171" height="19.7737" transform="matrix(0.866025 -0.5 0 1 22.8906 47.501)" fill="black"/>
<rect width="0.247171" height="19.7737" transform="matrix(0.866025 -0.5 0 1 23.9609 46.8828)" fill="black"/>
<rect width="0.247171" height="19.7737" transform="matrix(0.866025 -0.5 0 1 25.0312 46.2646)" fill="black"/>
<rect width="0.247171" height="19.7737" transform="matrix(0.866025 -0.5 0 1 26.1016 45.6465)" fill="black"/>
<rect width="0.247171" height="19.7737" transform="matrix(0.866025 -0.5 0 1 27.1719 45.0293)" fill="black"/>
<rect width="0.247171" height="19.7737" transform="matrix(0.866025 -0.5 0 1 28.2422 44.4111)" fill="black"/>
<rect width="0.247171" height="19.7737" transform="matrix(0.866025 -0.5 0 1 29.3125 43.793)" fill="black"/>
<rect width="0.247171" height="19.7737" transform="matrix(0.866025 -0.5 0 1 30.3828 43.1748)" fill="black"/>
<rect width="0.247171" height="19.7737" transform="matrix(0.866025 -0.5 0 1 31.4531 42.5576)" fill="black"/>
<rect width="0.247171" height="19.7737" transform="matrix(0.866025 -0.5 0 1 32.5234 41.9395)" fill="black"/>
<rect width="0.247171" height="19.7737" transform="matrix(0.866025 -0.5 0 1 33.5938 41.3213)" fill="black"/>
<rect width="0.247171" height="19.7737" transform="matrix(0.866025 -0.5 0 1 34.6641 40.7031)" fill="black"/>
<rect width="0.247171" height="19.7737" transform="matrix(0.866025 -0.5 0 1 35.7344 40.0859)" fill="black"/>
<rect width="0.247171" height="19.7737" transform="matrix(0.866025 -0.5 0 1 36.8047 39.4678)" fill="black"/>
<rect width="0.247171" height="19.7737" transform="matrix(0.866025 -0.5 0 1 37.875 38.8496)" fill="black"/>
<rect width="0.247171" height="19.7737" transform="matrix(0.866025 -0.5 0 1 38.9453 38.2314)" fill="black"/>
<rect width="0.247171" height="19.7737" transform="matrix(0.866025 -0.5 0 1 40.0156 37.6143)" fill="black"/>
<rect width="0.247171" height="19.7737" transform="matrix(0.866025 -0.5 0 1 41.0859 36.9961)" fill="black"/>
<rect width="0.247171" height="19.7737" transform="matrix(0.866025 -0.5 0 1 42.1562 36.3779)" fill="black"/>
<rect width="0.247171" height="19.7737" transform="matrix(0.866025 -0.5 0 1 43.2266 35.7598)" fill="black"/>
<rect width="0.247171" height="19.7737" transform="matrix(0.866025 -0.5 0 1 44.2969 35.1426)" fill="black"/>
<rect width="0.247171" height="19.7737" transform="matrix(0.866025 -0.5 0 1 45.3672 34.5244)" fill="black"/>
<rect width="0.247171" height="19.7737" transform="matrix(0.866025 -0.5 0 1 46.4375 33.9062)" fill="black"/>
<rect width="0.247171" height="19.7737" transform="matrix(0.866025 -0.5 0 1 47.5078 33.2881)" fill="black"/>
<rect width="0.247171" height="19.7737" transform="matrix(0.866025 -0.5 0 1 48.5781 32.6709)" fill="black"/>
<rect width="0.247171" height="19.7737" transform="matrix(0.866025 -0.5 0 1 49.6484 32.0527)" fill="black"/>
<rect width="0.247171" height="19.7737" transform="matrix(0.866025 -0.5 0 1 50.7188 31.4346)" fill="black"/>
<rect width="0.247171" height="19.7737" transform="matrix(0.866025 -0.5 0 1 51.7891 30.8164)" fill="black"/>
<rect width="0.247171" height="19.7737" transform="matrix(0.866025 -0.5 0 1 52.8594 30.1992)" fill="black"/>
<rect width="0.247171" height="19.7737" transform="matrix(0.866025 -0.5 0 1 53.9297 29.5811)" fill="black"/>
<rect width="0.247171" height="19.7737" transform="matrix(0.866025 -0.5 0 1 55 28.9629)" fill="black"/>
<rect width="0.247171" height="19.7737" transform="matrix(0.866025 -0.5 0 1 56.0703 28.3447)" fill="black"/>
<rect width="0.247171" height="19.7737" transform="matrix(0.866025 -0.5 0 1 57.1406 27.7275)" fill="black"/>
<rect width="0.247171" height="19.7737" transform="matrix(0.866025 -0.5 0 1 58.2109 27.1094)" fill="black"/>
<rect width="0.247171" height="19.7737" transform="matrix(0.866025 -0.5 0 1 59.2812 26.4912)" fill="black"/>
<rect width="0.247171" height="19.7737" transform="matrix(0.866025 -0.5 0 1 60.3516 25.873)" fill="black"/>
<rect width="0.247171" height="19.7737" transform="matrix(0.866025 -0.5 0 1 61.4219 25.2549)" fill="black"/>
<rect width="0.247171" height="19.7737" transform="matrix(0.866025 -0.5 0 1 62.4922 24.6377)" fill="black"/>
<rect width="0.247171" height="19.7737" transform="matrix(0.866025 -0.5 0 1 63.5625 24.0195)" fill="black"/>
<rect width="0.247171" height="19.7737" transform="matrix(0.866025 -0.5 0 1 64.6328 23.4014)" fill="black"/>
<rect width="0.247171" height="19.7737" transform="matrix(0.866025 -0.5 0 1 65.7031 22.7832)" fill="black"/>
<rect width="0.247171" height="19.7737" transform="matrix(0.866025 -0.5 0 1 66.7734 22.166)" fill="black"/>
<rect width="0.247171" height="19.7737" transform="matrix(0.866025 -0.5 0 1 67.8438 21.5479)" fill="black"/>
<rect width="0.247171" height="19.7737" transform="matrix(0.866025 -0.5 0 1 68.9141 20.9297)" fill="black"/>
<rect width="0.247171" height="19.7737" transform="matrix(0.866025 -0.5 0 1 69.9844 20.3115)" fill="black"/>
<rect width="0.247171" height="19.7737" transform="matrix(0.866025 -0.5 0 1 71.0547 19.6943)" fill="black"/>
<rect width="0.247171" height="19.7737" transform="matrix(0.866025 -0.5 0 1 72.125 19.0762)" fill="black"/>
<rect width="0.247171" height="19.7737" transform="matrix(0.866025 -0.5 0 1 73.1953 18.458)" fill="black"/>
<rect width="0.247171" height="19.7737" transform="matrix(0.866025 -0.5 0 1 74.2656 17.8398)" fill="black"/>
<rect width="0.247171" height="19.7737" transform="matrix(0.866025 -0.5 0 1 75.3359 17.2227)" fill="black"/>
<rect width="0.247171" height="19.7737" transform="matrix(0.866025 -0.5 0 1 76.4062 16.6045)" fill="black"/>
<rect width="0.247171" height="19.7737" transform="matrix(0.866025 -0.5 0 1 77.4766 15.9863)" fill="black"/>
<rect width="0.247171" height="19.7737" transform="matrix(0.866025 -0.5 0 1 78.5469 15.3682)" fill="black"/>
<rect width="0.247171" height="19.7737" transform="matrix(0.866025 -0.5 0 1 79.6172 14.751)" fill="black"/>
<rect width="0.247171" height="19.7737" transform="matrix(0.866025 -0.5 0 1 80.6875 14.1328)" fill="black"/>
<rect width="0.247171" height="19.7737" transform="matrix(0.866025 -0.5 0 1 81.7578 13.5146)" fill="black"/>
<rect width="0.247171" height="19.7737" transform="matrix(0.866025 -0.5 0 1 82.8281 12.8965)" fill="black"/>
<rect width="0.247171" height="19.7737" transform="matrix(0.866025 -0.5 0 1 83.8984 12.2793)" fill="black"/>
<rect width="0.247171" height="19.7737" transform="matrix(0.866025 -0.5 0 1 84.9688 11.6611)" fill="black"/>
<rect width="0.247171" height="19.7737" transform="matrix(0.866025 -0.5 0 1 86.0391 11.043)" fill="black"/>
<rect width="0.247171" height="19.7737" transform="matrix(0.866025 -0.5 0 1 87.1094 10.4248)" fill="black"/>
<rect width="0.247171" height="19.7737" transform="matrix(0.866025 -0.5 0 1 88.1797 9.80762)" fill="black"/>
<rect width="0.247171" height="19.7737" transform="matrix(0.866025 -0.5 0 1 89.25 9.18945)" fill="black"/>
<rect width="0.247171" height="19.7737" transform="matrix(0.866025 -0.5 0 1 90.3203 8.57129)" fill="black"/>
<rect width="0.247171" height="19.7737" transform="matrix(0.866025 -0.5 0 1 91.3906 7.95312)" fill="black"/>
</svg>
