<svg width="245" height="164" viewBox="0 0 245 164" fill="none" xmlns="http://www.w3.org/2000/svg">
<mask id="path-1-inside-1_722_911" fill="white">
<path d="M0.179688 96.7051L87 146.831V162.831L0.179688 112.705V96.7051Z"/>
</mask>
<path d="M0.179688 96.7051L87 146.831V162.831L0.179688 112.705V96.7051Z" fill="#EDEDED"/>
<path d="M87 162.831V163.325L87.4281 163.572V163.078L87 162.831ZM0.179688 112.705L-0.248425 112.458V112.952L0.179688 113.199V112.705ZM87 146.831L86.5719 146.584V162.584L87 162.831L87.4281 163.078V147.078L87 146.831ZM87 162.831V162.336L0.179688 112.211V112.705V113.199L87 163.325V162.831ZM0.179688 112.705L0.6078 112.952V96.9522L0.179688 96.7051L-0.248425 96.4579V112.458L0.179688 112.705Z" fill="black" mask="url(#path-1-inside-1_722_911)"/>
<mask id="path-3-inside-2_722_911" fill="white">
<path d="M0.179688 81.1279L67.1987 119.821V135.821L0.179688 97.1279V81.1279Z"/>
</mask>
<path d="M0.179688 81.1279L67.1987 119.821V135.821L0.179688 97.1279V81.1279Z" fill="#EDEDED"/>
<path d="M67.1987 119.821L66.7706 119.574V135.574L67.1987 135.821L67.6268 136.069V120.069L67.1987 119.821ZM0.179688 97.1279L0.6078 97.3751V81.3751L0.179688 81.1279L-0.248425 80.8808V96.8808L0.179688 97.1279Z" fill="black" mask="url(#path-3-inside-2_722_911)"/>
<mask id="path-5-outside-3_722_911" maskUnits="userSpaceOnUse" x="65.134" y="73.5176" width="79.6743" height="63" fill="black">
<rect fill="white" x="65.134" y="73.5176" width="79.6743" height="63"/>
<path d="M66 120.018L144 74.9843V90.3854L66 135.419V120.018Z"/>
</mask>
<path d="M66 120.018L144 74.9843V90.3854L66 135.419V120.018Z" fill="#EDEDED"/>
<path d="M66 120.018V119.523L65.5719 119.77V120.265L66 120.018ZM144 74.9843L144.52 74.6843V74.1899L144 74.4899V74.9843ZM144 90.3854V90.8797L144.52 90.5797V90.0854L144 90.3854ZM66 135.419L65.5719 135.666V136.16L66 135.913V135.419ZM66 120.018V120.512L144 75.4786V74.9843V74.4899L66 119.523V120.018ZM144 74.9843L143.48 75.2843V90.6854L144 90.3854L144.52 90.0854V74.6843L144 74.9843ZM144 90.3854V89.891L66 134.924V135.419V135.913L144 90.8797V90.3854ZM66 135.419L66.4281 135.172V119.77L66 120.018L65.5719 120.265V135.666L66 135.419Z" fill="black" mask="url(#path-5-outside-3_722_911)"/>
<mask id="path-7-outside-4_722_911" maskUnits="userSpaceOnUse" x="43.3137" y="44.7822" width="79.6743" height="64" fill="black">
<rect fill="white" x="43.3137" y="44.7822" width="79.6743" height="64"/>
<path d="M44.1797 91.2822L122 46.3526V62.3526L44.1797 107.282V91.2822Z"/>
</mask>
<path d="M44.1797 91.2822L122 46.3526V62.3526L44.1797 107.282V91.2822Z" fill="#EDEDED"/>
<path d="M44.1797 91.2822V90.7879L43.7516 91.0351V91.5294L44.1797 91.2822ZM122 46.3526L122.606 46.0026V45.5083L122 45.8583V46.3526ZM122 62.3526V62.847L122.606 62.497V62.0026L122 62.3526ZM44.1797 107.282L43.7516 107.529V108.024L44.1797 107.777V107.282ZM44.1797 91.2822V91.7766L122 46.847V46.3526V45.8583L44.1797 90.7879V91.2822ZM122 46.3526L121.394 46.7026V62.7026L122 62.3526L122.606 62.0026V46.0026L122 46.3526ZM122 62.3526V61.8583L44.1797 106.788V107.282V107.777L122 62.847V62.3526ZM44.1797 107.282L44.6078 107.035V91.0351L44.1797 91.2822L43.7516 91.5294V107.529L44.1797 107.282Z" fill="black" mask="url(#path-7-outside-4_722_911)"/>
<rect x="0.214056" y="0.123585" width="91.6742" height="15.5057" transform="matrix(0.866025 -0.5 0 1 22.2084 63.3893)" fill="#EDEDED" stroke="black" stroke-width="0.494341"/>
<mask id="path-10-inside-5_722_911" fill="white">
<path d="M0.179688 50.8594L22.1797 63.5611V79.5611L0.179688 66.8594V50.8594Z"/>
</mask>
<path d="M0.179688 50.8594L22.1797 63.5611V79.5611L0.179688 66.8594V50.8594Z" fill="#EDEDED"/>
<path d="M22.1797 63.5611L21.7516 63.3139V79.3139L22.1797 79.5611L22.6078 79.8083V63.8083L22.1797 63.5611ZM0.179688 66.8594L0.6078 67.1065V51.1065L0.179688 50.8594L-0.248425 50.6122V66.6122L0.179688 66.8594Z" fill="black" mask="url(#path-10-inside-5_722_911)"/>
<mask id="path-12-inside-6_722_911" fill="white">
<path d="M65.2969 135.702L144.139 90.1829L165.548 102.544L86.7063 148.063L65.2969 135.702Z"/>
</mask>
<path d="M65.2969 135.702L144.139 90.1829L165.548 102.544L86.7063 148.063L65.2969 135.702Z" fill="#EDEDED"/>
<path d="M65.2969 135.702L64.8639 135.452L64.4358 135.699L64.8688 135.949L65.2969 135.702ZM144.139 90.1829L144.572 89.9329L144.139 89.6829L143.706 89.9329L144.139 90.1829ZM165.548 102.544L165.981 102.794L166.414 102.544L165.981 102.294L165.548 102.544ZM86.7063 148.063L86.2782 148.31L86.7112 148.56L87.1393 148.313L86.7063 148.063ZM65.2969 135.702L65.7299 135.952L144.572 90.4329L144.139 90.1829L143.706 89.9329L64.8639 135.452L65.2969 135.702ZM144.139 90.1829L143.706 90.4329L165.115 102.794L165.548 102.544L165.981 102.294L144.572 89.9329L144.139 90.1829ZM165.548 102.544L165.115 102.294L86.2733 147.813L86.7063 148.063L87.1393 148.313L165.981 102.794L165.548 102.544ZM86.7063 148.063L87.1344 147.816L65.725 135.455L65.2969 135.702L64.8688 135.949L86.2782 148.31L86.7063 148.063Z" fill="black" mask="url(#path-12-inside-6_722_911)"/>
<mask id="path-14-inside-7_722_911" fill="white">
<path d="M164.336 102.105L243.178 56.5862L244.247 57.2038L165.406 102.723L164.336 102.105Z"/>
</mask>
<path d="M164.336 102.105L243.178 56.5862L244.247 57.2038L165.406 102.723L164.336 102.105Z" fill="#EDEDED"/>
<path d="M164.336 102.105L163.903 101.855L163.475 102.103L163.908 102.353L164.336 102.105ZM243.178 56.5862L243.611 56.3362L243.178 56.0862L242.745 56.3362L243.178 56.5862ZM244.247 57.2038L244.68 57.4538L245.113 57.2038L244.68 56.9538L244.247 57.2038ZM165.406 102.723L164.977 102.97L165.41 103.22L165.839 102.973L165.406 102.723ZM164.336 102.105L164.769 102.355L243.611 56.8362L243.178 56.5862L242.745 56.3362L163.903 101.855L164.336 102.105ZM243.178 56.5862L242.745 56.8362L243.814 57.4538L244.247 57.2038L244.68 56.9538L243.611 56.3362L243.178 56.5862ZM244.247 57.2038L243.814 56.9538L164.973 102.473L165.406 102.723L165.839 102.973L244.68 57.4538L244.247 57.2038ZM165.406 102.723L165.834 102.476L164.764 101.858L164.336 102.105L163.908 102.353L164.977 102.97L165.406 102.723Z" fill="black" mask="url(#path-14-inside-7_722_911)"/>
<mask id="path-16-inside-8_722_911" fill="white">
<path d="M144 90.3633L222.842 44.844L223.911 45.4616L145.07 90.9808L144 90.3633Z"/>
</mask>
<path d="M144 90.3633L222.842 44.844L223.911 45.4616L145.07 90.9808L144 90.3633Z" fill="#EDEDED"/>
<path d="M144 90.3633L143.567 90.1133L143.139 90.3605L143.572 90.6105L144 90.3633ZM222.842 44.844L223.275 44.594L222.842 44.344L222.409 44.594L222.842 44.844ZM223.911 45.4616L224.344 45.7116L224.777 45.4616L224.344 45.2116L223.911 45.4616ZM145.07 90.9808L144.642 91.228L145.075 91.478L145.503 91.2308L145.07 90.9808ZM144 90.3633L144.433 90.6133L223.275 45.094L222.842 44.844L222.409 44.594L143.567 90.1133L144 90.3633ZM222.842 44.844L222.409 45.094L223.478 45.7116L223.911 45.4616L224.344 45.2116L223.275 44.594L222.842 44.844ZM223.911 45.4616L223.478 45.2116L144.637 90.7308L145.07 90.9808L145.503 91.2308L224.344 45.7116L223.911 45.4616ZM145.07 90.9808L145.498 90.7337L144.428 90.1161L144 90.3633L143.572 90.6105L144.642 91.228L145.07 90.9808Z" fill="black" mask="url(#path-16-inside-8_722_911)"/>
<mask id="path-18-outside-9_722_911" maskUnits="userSpaceOnUse" x="42.4476" y="61.2822" width="103.057" height="59.5" fill="black">
<rect fill="white" x="42.4476" y="61.2822" width="103.057" height="59.5"/>
<path d="M44.1797 107.282L122.427 62.1059L143.673 74.3719L65.425 119.548L44.1797 107.282Z"/>
</mask>
<path d="M44.1797 107.282L122.427 62.1059L143.673 74.3719L65.425 119.548L44.1797 107.282Z" fill="#EDEDED"/>
<path d="M44.1797 107.282L43.7467 107.032L43.3137 107.282L43.7467 107.532L44.1797 107.282ZM122.427 62.1059L122.86 61.8559L122.427 61.6059L121.994 61.8559L122.427 62.1059ZM143.673 74.3719L144.106 74.6219L144.539 74.3719L144.106 74.1219L143.673 74.3719ZM65.425 119.548L64.992 119.798L65.425 120.048L65.858 119.798L65.425 119.548ZM44.1797 107.282L44.6127 107.532L122.86 62.3559L122.427 62.1059L121.994 61.8559L43.7467 107.032L44.1797 107.282ZM122.427 62.1059L121.994 62.3559L143.24 74.6219L143.673 74.3719L144.106 74.1219L122.86 61.8559L122.427 62.1059ZM143.673 74.3719L143.24 74.1219L64.992 119.298L65.425 119.548L65.858 119.798L144.106 74.6219L143.673 74.3719ZM65.425 119.548L65.858 119.298L44.6127 107.032L44.1797 107.282L43.7467 107.532L64.992 119.798L65.425 119.548Z" fill="black" mask="url(#path-18-outside-9_722_911)"/>
<mask id="path-20-inside-10_722_911" fill="white">
<path d="M22.25 79.2412L101.591 33.4336L122.608 45.5675L43.2666 91.3752L22.25 79.2412Z"/>
</mask>
<path d="M22.25 79.2412L101.591 33.4336L122.608 45.5675L43.2666 91.3752L22.25 79.2412Z" fill="#EDEDED"/>
<path d="M22.25 79.2412L21.8219 78.994L20.9559 79.494L21.384 79.7412L22.25 79.2412ZM101.591 33.4336L102.457 32.9336L102.029 32.6864L101.163 33.1864L101.591 33.4336ZM122.608 45.5675L123.036 45.8147L123.902 45.3147L123.474 45.0675L122.608 45.5675ZM43.2666 91.3752L42.4006 91.8752L42.8287 92.1223L43.6947 91.6223L43.2666 91.3752ZM22.25 79.2412L22.6781 79.4884L102.019 33.6808L101.591 33.4336L101.163 33.1864L21.8219 78.994L22.25 79.2412ZM101.591 33.4336L100.725 33.9336L121.742 46.0675L122.608 45.5675L123.474 45.0675L102.457 32.9336L101.591 33.4336ZM122.608 45.5675L122.18 45.3204L42.8385 91.128L43.2666 91.3752L43.6947 91.6223L123.036 45.8147L122.608 45.5675ZM43.2666 91.3752L44.1327 90.8752L23.116 78.7412L22.25 79.2412L21.384 79.7412L42.4006 91.8752L43.2666 91.3752Z" fill="black" mask="url(#path-20-inside-10_722_911)"/>
<rect x="0.866025" width="91.675" height="24.2098" transform="matrix(0.866025 -0.5 0.866025 0.5 0.116025 51.6107)" fill="#EDEDED" stroke="black"/>
<rect width="0.247171" height="15" transform="matrix(0.866025 -0.5 0 1 66.1797 119.789)" fill="black"/>
<rect width="0.247171" height="15" transform="matrix(0.866025 -0.5 0 1 67.25 119.171)" fill="black"/>
<rect width="0.247171" height="15" transform="matrix(0.866025 -0.5 0 1 68.3203 118.553)" fill="black"/>
<rect width="0.247171" height="15" transform="matrix(0.866025 -0.5 0 1 69.3906 117.936)" fill="black"/>
<rect width="0.247171" height="15" transform="matrix(0.866025 -0.5 0 1 70.4609 117.317)" fill="black"/>
<rect width="0.247171" height="15" transform="matrix(0.866025 -0.5 0 1 71.5312 116.699)" fill="black"/>
<rect width="0.247171" height="15" transform="matrix(0.866025 -0.5 0 1 72.6016 116.081)" fill="black"/>
<rect width="0.247171" height="15" transform="matrix(0.866025 -0.5 0 1 73.6719 115.464)" fill="black"/>
<rect width="0.247171" height="15" transform="matrix(0.866025 -0.5 0 1 74.7422 114.846)" fill="black"/>
<rect width="0.247171" height="15" transform="matrix(0.866025 -0.5 0 1 75.8125 114.228)" fill="black"/>
<rect width="0.247171" height="15" transform="matrix(0.866025 -0.5 0 1 76.8828 113.609)" fill="black"/>
<rect width="0.247171" height="15" transform="matrix(0.866025 -0.5 0 1 77.9531 112.992)" fill="black"/>
<rect width="0.247171" height="15" transform="matrix(0.866025 -0.5 0 1 79.0234 112.374)" fill="black"/>
<rect width="0.247171" height="15" transform="matrix(0.866025 -0.5 0 1 80.0938 111.756)" fill="black"/>
<rect width="0.247171" height="15" transform="matrix(0.866025 -0.5 0 1 81.1641 111.138)" fill="black"/>
<rect width="0.247171" height="15" transform="matrix(0.866025 -0.5 0 1 82.2344 110.521)" fill="black"/>
<rect width="0.247171" height="15" transform="matrix(0.866025 -0.5 0 1 83.3047 109.902)" fill="black"/>
<rect width="0.247171" height="15" transform="matrix(0.866025 -0.5 0 1 84.375 109.284)" fill="black"/>
<rect width="0.247171" height="15" transform="matrix(0.866025 -0.5 0 1 85.4453 108.666)" fill="black"/>
<rect width="0.247171" height="15" transform="matrix(0.866025 -0.5 0 1 86.5156 108.049)" fill="black"/>
<rect width="0.247171" height="15" transform="matrix(0.866025 -0.5 0 1 87.5859 107.431)" fill="black"/>
<rect width="0.247171" height="15" transform="matrix(0.866025 -0.5 0 1 88.6562 106.812)" fill="black"/>
<rect width="0.247171" height="15" transform="matrix(0.866025 -0.5 0 1 89.7266 106.194)" fill="black"/>
<rect width="0.247171" height="15" transform="matrix(0.866025 -0.5 0 1 90.7969 105.576)" fill="black"/>
<rect width="0.247171" height="15" transform="matrix(0.866025 -0.5 0 1 91.8672 104.959)" fill="black"/>
<rect width="0.247171" height="15" transform="matrix(0.866025 -0.5 0 1 92.9375 104.341)" fill="black"/>
<rect width="0.247171" height="15" transform="matrix(0.866025 -0.5 0 1 94.0078 103.723)" fill="black"/>
<rect width="0.247171" height="15" transform="matrix(0.866025 -0.5 0 1 95.0781 103.104)" fill="black"/>
<rect width="0.247171" height="15" transform="matrix(0.866025 -0.5 0 1 96.1484 102.487)" fill="black"/>
<rect width="0.247171" height="15" transform="matrix(0.866025 -0.5 0 1 97.2188 101.869)" fill="black"/>
<rect width="0.247171" height="15" transform="matrix(0.866025 -0.5 0 1 98.2891 101.251)" fill="black"/>
<rect width="0.247171" height="15" transform="matrix(0.866025 -0.5 0 1 99.3594 100.633)" fill="black"/>
<rect width="0.247171" height="15" transform="matrix(0.866025 -0.5 0 1 100.43 100.016)" fill="black"/>
<rect width="0.247171" height="15" transform="matrix(0.866025 -0.5 0 1 101.5 99.3975)" fill="black"/>
<rect width="0.247171" height="15" transform="matrix(0.866025 -0.5 0 1 102.57 98.7793)" fill="black"/>
<rect width="0.247171" height="15" transform="matrix(0.866025 -0.5 0 1 103.641 98.1611)" fill="black"/>
<rect width="0.247171" height="15" transform="matrix(0.866025 -0.5 0 1 104.711 97.5439)" fill="black"/>
<rect width="0.247171" height="15" transform="matrix(0.866025 -0.5 0 1 105.781 96.9258)" fill="black"/>
<rect width="0.247171" height="15" transform="matrix(0.866025 -0.5 0 1 106.852 96.3076)" fill="black"/>
<rect width="0.247171" height="15" transform="matrix(0.866025 -0.5 0 1 107.922 95.6895)" fill="black"/>
<rect width="0.247171" height="15" transform="matrix(0.866025 -0.5 0 1 108.992 95.0723)" fill="black"/>
<rect width="0.247171" height="15" transform="matrix(0.866025 -0.5 0 1 110.062 94.4541)" fill="black"/>
<rect width="0.247171" height="15" transform="matrix(0.866025 -0.5 0 1 111.133 93.8359)" fill="black"/>
<rect width="0.247171" height="15" transform="matrix(0.866025 -0.5 0 1 112.203 93.2178)" fill="black"/>
<rect width="0.247171" height="15" transform="matrix(0.866025 -0.5 0 1 113.273 92.6006)" fill="black"/>
<rect width="0.247171" height="15" transform="matrix(0.866025 -0.5 0 1 114.344 91.9824)" fill="black"/>
<rect width="0.247171" height="15" transform="matrix(0.866025 -0.5 0 1 115.414 91.3643)" fill="black"/>
<rect width="0.247171" height="15" transform="matrix(0.866025 -0.5 0 1 116.484 90.7461)" fill="black"/>
<rect width="0.247171" height="15" transform="matrix(0.866025 -0.5 0 1 117.555 90.1289)" fill="black"/>
<rect width="0.247171" height="15" transform="matrix(0.866025 -0.5 0 1 118.625 89.5107)" fill="black"/>
<rect width="0.247171" height="15" transform="matrix(0.866025 -0.5 0 1 119.695 88.8926)" fill="black"/>
<rect width="0.247171" height="15" transform="matrix(0.866025 -0.5 0 1 120.766 88.2744)" fill="black"/>
<rect width="0.247171" height="15" transform="matrix(0.866025 -0.5 0 1 121.836 87.6572)" fill="black"/>
<rect width="0.247171" height="15" transform="matrix(0.866025 -0.5 0 1 122.906 87.0391)" fill="black"/>
<rect width="0.247171" height="15" transform="matrix(0.866025 -0.5 0 1 123.977 86.4209)" fill="black"/>
<rect width="0.247171" height="15" transform="matrix(0.866025 -0.5 0 1 125.047 85.8027)" fill="black"/>
<rect width="0.247171" height="15" transform="matrix(0.866025 -0.5 0 1 126.117 85.1846)" fill="black"/>
<rect width="0.247171" height="15" transform="matrix(0.866025 -0.5 0 1 127.188 84.5674)" fill="black"/>
<rect width="0.247171" height="15" transform="matrix(0.866025 -0.5 0 1 128.258 83.9492)" fill="black"/>
<rect width="0.247171" height="15" transform="matrix(0.866025 -0.5 0 1 129.328 83.3311)" fill="black"/>
<rect width="0.247171" height="15" transform="matrix(0.866025 -0.5 0 1 130.398 82.7129)" fill="black"/>
<rect width="0.247171" height="15" transform="matrix(0.866025 -0.5 0 1 131.469 82.0957)" fill="black"/>
<rect width="0.247171" height="15" transform="matrix(0.866025 -0.5 0 1 132.539 81.4775)" fill="black"/>
<rect width="0.247171" height="15" transform="matrix(0.866025 -0.5 0 1 133.609 80.8594)" fill="black"/>
<rect width="0.247171" height="15" transform="matrix(0.866025 -0.5 0 1 134.68 80.2412)" fill="black"/>
<rect width="0.247171" height="15" transform="matrix(0.866025 -0.5 0 1 135.75 79.624)" fill="black"/>
<rect width="0.247171" height="15" transform="matrix(0.866025 -0.5 0 1 136.82 79.0059)" fill="black"/>
<rect width="0.247171" height="15" transform="matrix(0.866025 -0.5 0 1 137.891 78.3877)" fill="black"/>
<rect width="0.247171" height="15" transform="matrix(0.866025 -0.5 0 1 138.961 77.7695)" fill="black"/>
<rect width="0.247171" height="15" transform="matrix(0.866025 -0.5 0 1 140.031 77.1523)" fill="black"/>
<rect width="0.247171" height="15" transform="matrix(0.866025 -0.5 0 1 141.102 76.5342)" fill="black"/>
<rect width="0.247171" height="15" transform="matrix(0.866025 -0.5 0 1 142.172 75.916)" fill="black"/>
<rect width="0.247171" height="15" transform="matrix(0.866025 -0.5 0 1 143.242 75.2979)" fill="black"/>
<rect width="0.247171" height="15" transform="matrix(0.866025 -0.5 0 1 22.1797 63.7891)" fill="black"/>
<rect width="0.247171" height="15" transform="matrix(0.866025 -0.5 0 1 23.25 63.1709)" fill="black"/>
<rect width="0.247171" height="15" transform="matrix(0.866025 -0.5 0 1 24.3203 62.5527)" fill="black"/>
<rect width="0.247171" height="15" transform="matrix(0.866025 -0.5 0 1 25.3906 61.9355)" fill="black"/>
<rect width="0.247171" height="15" transform="matrix(0.866025 -0.5 0 1 26.4609 61.3174)" fill="black"/>
<rect width="0.247171" height="15" transform="matrix(0.866025 -0.5 0 1 27.5312 60.6992)" fill="black"/>
<rect width="0.247171" height="15" transform="matrix(0.866025 -0.5 0 1 28.6016 60.0811)" fill="black"/>
<rect width="0.247171" height="15" transform="matrix(0.866025 -0.5 0 1 29.6719 59.4639)" fill="black"/>
<rect width="0.247171" height="15" transform="matrix(0.866025 -0.5 0 1 30.7422 58.8457)" fill="black"/>
<rect width="0.247171" height="15" transform="matrix(0.866025 -0.5 0 1 31.8125 58.2275)" fill="black"/>
<rect width="0.247171" height="15" transform="matrix(0.866025 -0.5 0 1 32.8828 57.6094)" fill="black"/>
<rect width="0.247171" height="15" transform="matrix(0.866025 -0.5 0 1 33.9531 56.9922)" fill="black"/>
<rect width="0.247171" height="15" transform="matrix(0.866025 -0.5 0 1 35.0234 56.374)" fill="black"/>
<rect width="0.247171" height="15" transform="matrix(0.866025 -0.5 0 1 36.0938 55.7559)" fill="black"/>
<rect width="0.247171" height="15" transform="matrix(0.866025 -0.5 0 1 37.1641 55.1377)" fill="black"/>
<rect width="0.247171" height="15" transform="matrix(0.866025 -0.5 0 1 38.2344 54.5205)" fill="black"/>
<rect width="0.247171" height="15" transform="matrix(0.866025 -0.5 0 1 39.3047 53.9023)" fill="black"/>
<rect width="0.247171" height="15" transform="matrix(0.866025 -0.5 0 1 40.375 53.2842)" fill="black"/>
<rect width="0.247171" height="15" transform="matrix(0.866025 -0.5 0 1 41.4453 52.666)" fill="black"/>
<rect width="0.247171" height="15" transform="matrix(0.866025 -0.5 0 1 42.5156 52.0488)" fill="black"/>
<rect width="0.247171" height="15" transform="matrix(0.866025 -0.5 0 1 43.5859 51.4307)" fill="black"/>
<rect width="0.247171" height="15" transform="matrix(0.866025 -0.5 0 1 44.6562 50.8125)" fill="black"/>
<rect width="0.247171" height="15" transform="matrix(0.866025 -0.5 0 1 45.7266 50.1943)" fill="black"/>
<rect width="0.247171" height="15" transform="matrix(0.866025 -0.5 0 1 46.7969 49.5762)" fill="black"/>
<rect width="0.247171" height="15" transform="matrix(0.866025 -0.5 0 1 47.8672 48.959)" fill="black"/>
<rect width="0.247171" height="15" transform="matrix(0.866025 -0.5 0 1 48.9375 48.3408)" fill="black"/>
<rect width="0.247171" height="15" transform="matrix(0.866025 -0.5 0 1 50.0078 47.7227)" fill="black"/>
<rect width="0.247171" height="15" transform="matrix(0.866025 -0.5 0 1 51.0781 47.1045)" fill="black"/>
<rect width="0.247171" height="15" transform="matrix(0.866025 -0.5 0 1 52.1484 46.4873)" fill="black"/>
<rect width="0.247171" height="15" transform="matrix(0.866025 -0.5 0 1 53.2188 45.8691)" fill="black"/>
<rect width="0.247171" height="15" transform="matrix(0.866025 -0.5 0 1 54.2891 45.251)" fill="black"/>
<rect width="0.247171" height="15" transform="matrix(0.866025 -0.5 0 1 55.3594 44.6328)" fill="black"/>
<rect width="0.247171" height="15" transform="matrix(0.866025 -0.5 0 1 56.4297 44.0156)" fill="black"/>
<rect width="0.247171" height="15" transform="matrix(0.866025 -0.5 0 1 57.5 43.3975)" fill="black"/>
<rect width="0.247171" height="15" transform="matrix(0.866025 -0.5 0 1 58.5703 42.7793)" fill="black"/>
<rect width="0.247171" height="15" transform="matrix(0.866025 -0.5 0 1 59.6406 42.1611)" fill="black"/>
<rect width="0.247171" height="15" transform="matrix(0.866025 -0.5 0 1 60.7109 41.5439)" fill="black"/>
<rect width="0.247171" height="15" transform="matrix(0.866025 -0.5 0 1 61.7812 40.9258)" fill="black"/>
<rect width="0.247171" height="15" transform="matrix(0.866025 -0.5 0 1 62.8516 40.3076)" fill="black"/>
<rect width="0.247171" height="15" transform="matrix(0.866025 -0.5 0 1 63.9219 39.6895)" fill="black"/>
<rect width="0.247171" height="15" transform="matrix(0.866025 -0.5 0 1 64.9922 39.0723)" fill="black"/>
<rect width="0.247171" height="15" transform="matrix(0.866025 -0.5 0 1 66.0625 38.4541)" fill="black"/>
<rect width="0.247171" height="15" transform="matrix(0.866025 -0.5 0 1 67.1328 37.8359)" fill="black"/>
<rect width="0.247171" height="15" transform="matrix(0.866025 -0.5 0 1 68.2031 37.2178)" fill="black"/>
<rect width="0.247171" height="15" transform="matrix(0.866025 -0.5 0 1 69.2734 36.6006)" fill="black"/>
<rect width="0.247171" height="15" transform="matrix(0.866025 -0.5 0 1 70.3438 35.9824)" fill="black"/>
<rect width="0.247171" height="15" transform="matrix(0.866025 -0.5 0 1 71.4141 35.3643)" fill="black"/>
<rect width="0.247171" height="15" transform="matrix(0.866025 -0.5 0 1 72.4844 34.7461)" fill="black"/>
<rect width="0.247171" height="15" transform="matrix(0.866025 -0.5 0 1 73.5547 34.1289)" fill="black"/>
<rect width="0.247171" height="15" transform="matrix(0.866025 -0.5 0 1 74.625 33.5107)" fill="black"/>
<rect width="0.247171" height="15" transform="matrix(0.866025 -0.5 0 1 75.6953 32.8926)" fill="black"/>
<rect width="0.247171" height="15" transform="matrix(0.866025 -0.5 0 1 76.7656 32.2744)" fill="black"/>
<rect width="0.247171" height="15" transform="matrix(0.866025 -0.5 0 1 77.8359 31.6572)" fill="black"/>
<rect width="0.247171" height="15" transform="matrix(0.866025 -0.5 0 1 78.9062 31.0391)" fill="black"/>
<rect width="0.247171" height="15" transform="matrix(0.866025 -0.5 0 1 79.9766 30.4209)" fill="black"/>
<rect width="0.247171" height="15" transform="matrix(0.866025 -0.5 0 1 81.0469 29.8027)" fill="black"/>
<rect width="0.247171" height="15" transform="matrix(0.866025 -0.5 0 1 82.1172 29.1846)" fill="black"/>
<rect width="0.247171" height="15" transform="matrix(0.866025 -0.5 0 1 83.1875 28.5674)" fill="black"/>
<rect width="0.247171" height="15" transform="matrix(0.866025 -0.5 0 1 84.2578 27.9492)" fill="black"/>
<rect width="0.247171" height="15" transform="matrix(0.866025 -0.5 0 1 85.3281 27.3311)" fill="black"/>
<rect width="0.247171" height="15" transform="matrix(0.866025 -0.5 0 1 86.3984 26.7129)" fill="black"/>
<rect width="0.247171" height="15" transform="matrix(0.866025 -0.5 0 1 87.4688 26.0957)" fill="black"/>
<rect width="0.247171" height="15" transform="matrix(0.866025 -0.5 0 1 88.5391 25.4775)" fill="black"/>
<rect width="0.247171" height="15" transform="matrix(0.866025 -0.5 0 1 89.6094 24.8594)" fill="black"/>
<rect width="0.247171" height="15" transform="matrix(0.866025 -0.5 0 1 90.6797 24.2412)" fill="black"/>
<rect width="0.247171" height="15" transform="matrix(0.866025 -0.5 0 1 91.75 23.624)" fill="black"/>
<rect width="0.247171" height="15" transform="matrix(0.866025 -0.5 0 1 92.8203 23.0059)" fill="black"/>
<rect width="0.247171" height="15" transform="matrix(0.866025 -0.5 0 1 93.8906 22.3877)" fill="black"/>
<rect width="0.247171" height="15" transform="matrix(0.866025 -0.5 0 1 94.9609 21.7695)" fill="black"/>
<rect width="0.247171" height="15" transform="matrix(0.866025 -0.5 0 1 96.0312 21.1523)" fill="black"/>
<rect width="0.247171" height="15" transform="matrix(0.866025 -0.5 0 1 97.1016 20.5342)" fill="black"/>
<rect width="0.247171" height="15" transform="matrix(0.866025 -0.5 0 1 98.1719 19.916)" fill="black"/>
<rect width="0.247171" height="15" transform="matrix(0.866025 -0.5 0 1 99.2422 19.2979)" fill="black"/>
<rect width="0.247171" height="15" transform="matrix(0.866025 -0.5 0 1 100.312 18.6807)" fill="black"/>
<rect width="0.247171" height="15" transform="matrix(0.866025 -0.5 0 1 101.383 18.0625)" fill="black"/>
<mask id="path-171-inside-11_722_911" fill="white">
<path d="M0.179688 66.2822L44.3571 91.7881V107.408L0.179688 81.9021V66.2822Z"/>
</mask>
<path d="M0.179688 66.2822L44.3571 91.7881V107.408L0.179688 81.9021V66.2822Z" fill="#EDEDED"/>
<path d="M44.3571 91.7881L43.929 91.5409V107.161L44.3571 107.408L44.7853 107.655V92.0353L44.3571 91.7881ZM0.179688 81.9021L0.6078 82.1493V66.5294L0.179688 66.2822L-0.248425 66.0351V81.655L0.179688 81.9021Z" fill="black" mask="url(#path-171-inside-11_722_911)"/>
<mask id="path-173-outside-12_722_911" maskUnits="userSpaceOnUse" x="86.134" y="101.861" width="79.6743" height="62" fill="black">
<rect fill="white" x="86.134" y="101.861" width="79.6743" height="62"/>
<path d="M87 148.361L165.139 103.248V117.184L87 162.298V148.361Z"/>
</mask>
<path d="M87 148.361L165.139 103.248V117.184L87 162.298V148.361Z" fill="#EDEDED"/>
<path d="M87 148.361V147.867L86.5719 148.114V148.608L87 148.361ZM165.139 103.248L165.659 102.948V102.453L165.139 102.753V103.248ZM165.139 117.184V117.484L165.659 117.184V116.884L165.139 117.184ZM87 162.298L86.5719 162.545V162.845L87 162.598V162.298ZM87 148.361V148.856L165.139 103.742V103.248V102.753L87 147.867V148.361ZM165.139 103.248L164.62 103.548V117.484L165.139 117.184L165.659 116.884V102.948L165.139 103.248ZM165.139 117.184V116.884L87 161.998V162.298V162.598L165.139 117.484V117.184ZM87 162.298L87.4281 162.051V148.114L87 148.361L86.5719 148.608V162.545L87 162.298Z" fill="black" mask="url(#path-173-outside-12_722_911)"/>
<rect width="0.247171" height="15" transform="matrix(0.866025 -0.5 0 1 88 147.07)" fill="black"/>
<rect width="0.247171" height="15" transform="matrix(0.866025 -0.5 0 1 89.0703 146.452)" fill="black"/>
<rect width="0.247171" height="15" transform="matrix(0.866025 -0.5 0 1 90.1406 145.834)" fill="black"/>
<rect width="0.247171" height="15" transform="matrix(0.866025 -0.5 0 1 91.2109 145.217)" fill="black"/>
<rect width="0.247171" height="15" transform="matrix(0.866025 -0.5 0 1 92.2812 144.599)" fill="black"/>
<rect width="0.247171" height="15" transform="matrix(0.866025 -0.5 0 1 93.3516 143.98)" fill="black"/>
<rect width="0.247171" height="15" transform="matrix(0.866025 -0.5 0 1 94.4219 143.362)" fill="black"/>
<rect width="0.247171" height="15" transform="matrix(0.866025 -0.5 0 1 95.4922 142.745)" fill="black"/>
<rect width="0.247171" height="15" transform="matrix(0.866025 -0.5 0 1 96.5625 142.127)" fill="black"/>
<rect width="0.247171" height="15" transform="matrix(0.866025 -0.5 0 1 97.6328 141.509)" fill="black"/>
<rect width="0.247171" height="15" transform="matrix(0.866025 -0.5 0 1 98.7031 140.891)" fill="black"/>
<rect width="0.247171" height="15" transform="matrix(0.866025 -0.5 0 1 99.7734 140.273)" fill="black"/>
<rect width="0.247171" height="15" transform="matrix(0.866025 -0.5 0 1 100.844 139.655)" fill="black"/>
<rect width="0.247171" height="15" transform="matrix(0.866025 -0.5 0 1 101.914 139.037)" fill="black"/>
<rect width="0.247171" height="15" transform="matrix(0.866025 -0.5 0 1 102.984 138.419)" fill="black"/>
<rect width="0.247171" height="15" transform="matrix(0.866025 -0.5 0 1 104.055 137.802)" fill="black"/>
<rect width="0.247171" height="15" transform="matrix(0.866025 -0.5 0 1 105.125 137.184)" fill="black"/>
<rect width="0.247171" height="15" transform="matrix(0.866025 -0.5 0 1 106.195 136.565)" fill="black"/>
<rect width="0.247171" height="15" transform="matrix(0.866025 -0.5 0 1 107.266 135.947)" fill="black"/>
<rect width="0.247171" height="15" transform="matrix(0.866025 -0.5 0 1 108.336 135.33)" fill="black"/>
<rect width="0.247171" height="15" transform="matrix(0.866025 -0.5 0 1 109.406 134.712)" fill="black"/>
<rect width="0.247171" height="15" transform="matrix(0.866025 -0.5 0 1 110.477 134.094)" fill="black"/>
<rect width="0.247171" height="15" transform="matrix(0.866025 -0.5 0 1 111.547 133.476)" fill="black"/>
<rect width="0.247171" height="15" transform="matrix(0.866025 -0.5 0 1 112.617 132.857)" fill="black"/>
<rect width="0.247171" height="15" transform="matrix(0.866025 -0.5 0 1 113.688 132.24)" fill="black"/>
<rect width="0.247171" height="15" transform="matrix(0.866025 -0.5 0 1 114.758 131.622)" fill="black"/>
<rect width="0.247171" height="15" transform="matrix(0.866025 -0.5 0 1 115.828 131.004)" fill="black"/>
<rect width="0.247171" height="15" transform="matrix(0.866025 -0.5 0 1 116.898 130.386)" fill="black"/>
<rect width="0.247171" height="15" transform="matrix(0.866025 -0.5 0 1 117.969 129.769)" fill="black"/>
<rect width="0.247171" height="15" transform="matrix(0.866025 -0.5 0 1 119.039 129.15)" fill="black"/>
<rect width="0.247171" height="15" transform="matrix(0.866025 -0.5 0 1 120.109 128.532)" fill="black"/>
<rect width="0.247171" height="15" transform="matrix(0.866025 -0.5 0 1 121.18 127.914)" fill="black"/>
<rect width="0.247171" height="15" transform="matrix(0.866025 -0.5 0 1 122.25 127.297)" fill="black"/>
<rect width="0.247171" height="15" transform="matrix(0.866025 -0.5 0 1 123.32 126.679)" fill="black"/>
<rect width="0.247171" height="15" transform="matrix(0.866025 -0.5 0 1 124.391 126.061)" fill="black"/>
<rect width="0.247171" height="15" transform="matrix(0.866025 -0.5 0 1 125.461 125.442)" fill="black"/>
<rect width="0.247171" height="15" transform="matrix(0.866025 -0.5 0 1 126.531 124.825)" fill="black"/>
<rect width="0.247171" height="15" transform="matrix(0.866025 -0.5 0 1 127.602 124.207)" fill="black"/>
<rect width="0.247171" height="15" transform="matrix(0.866025 -0.5 0 1 128.672 123.589)" fill="black"/>
<rect width="0.247171" height="15" transform="matrix(0.866025 -0.5 0 1 129.742 122.971)" fill="black"/>
<rect width="0.247171" height="15" transform="matrix(0.866025 -0.5 0 1 130.812 122.354)" fill="black"/>
<rect width="0.247171" height="15" transform="matrix(0.866025 -0.5 0 1 131.883 121.735)" fill="black"/>
<rect width="0.247171" height="15" transform="matrix(0.866025 -0.5 0 1 132.953 121.117)" fill="black"/>
<rect width="0.247171" height="15" transform="matrix(0.866025 -0.5 0 1 134.023 120.499)" fill="black"/>
<rect width="0.247171" height="15" transform="matrix(0.866025 -0.5 0 1 135.094 119.882)" fill="black"/>
<rect width="0.247171" height="15" transform="matrix(0.866025 -0.5 0 1 136.164 119.264)" fill="black"/>
<rect width="0.247171" height="15" transform="matrix(0.866025 -0.5 0 1 137.234 118.646)" fill="black"/>
<rect width="0.247171" height="15" transform="matrix(0.866025 -0.5 0 1 138.305 118.027)" fill="black"/>
<rect width="0.247171" height="15" transform="matrix(0.866025 -0.5 0 1 139.375 117.41)" fill="black"/>
<rect width="0.247171" height="15" transform="matrix(0.866025 -0.5 0 1 140.445 116.792)" fill="black"/>
<rect width="0.247171" height="15" transform="matrix(0.866025 -0.5 0 1 141.516 116.174)" fill="black"/>
<rect width="0.247171" height="15" transform="matrix(0.866025 -0.5 0 1 142.586 115.556)" fill="black"/>
<rect width="0.247171" height="15" transform="matrix(0.866025 -0.5 0 1 143.656 114.938)" fill="black"/>
<rect width="0.247171" height="15" transform="matrix(0.866025 -0.5 0 1 144.727 114.32)" fill="black"/>
<rect width="0.247171" height="15" transform="matrix(0.866025 -0.5 0 1 145.797 113.702)" fill="black"/>
<rect width="0.247171" height="15" transform="matrix(0.866025 -0.5 0 1 146.867 113.084)" fill="black"/>
<rect width="0.247171" height="15" transform="matrix(0.866025 -0.5 0 1 147.938 112.466)" fill="black"/>
<rect width="0.247171" height="15" transform="matrix(0.866025 -0.5 0 1 149.008 111.849)" fill="black"/>
<rect width="0.247171" height="15" transform="matrix(0.866025 -0.5 0 1 150.078 111.23)" fill="black"/>
<rect width="0.247171" height="15" transform="matrix(0.866025 -0.5 0 1 151.148 110.612)" fill="black"/>
<rect width="0.247171" height="15" transform="matrix(0.866025 -0.5 0 1 152.219 109.994)" fill="black"/>
<rect width="0.247171" height="15" transform="matrix(0.866025 -0.5 0 1 153.289 109.377)" fill="black"/>
<rect width="0.247171" height="15" transform="matrix(0.866025 -0.5 0 1 154.359 108.759)" fill="black"/>
<rect width="0.247171" height="15" transform="matrix(0.866025 -0.5 0 1 155.43 108.141)" fill="black"/>
<rect width="0.247171" height="15" transform="matrix(0.866025 -0.5 0 1 156.5 107.522)" fill="black"/>
<rect width="0.247171" height="15" transform="matrix(0.866025 -0.5 0 1 157.57 106.905)" fill="black"/>
<rect width="0.247171" height="15" transform="matrix(0.866025 -0.5 0 1 158.641 106.287)" fill="black"/>
<rect width="0.247171" height="15" transform="matrix(0.866025 -0.5 0 1 159.711 105.669)" fill="black"/>
<rect width="0.247171" height="15" transform="matrix(0.866025 -0.5 0 1 160.781 105.051)" fill="black"/>
<rect width="0.247171" height="15" transform="matrix(0.866025 -0.5 0 1 161.852 104.434)" fill="black"/>
<rect width="0.247171" height="15" transform="matrix(0.866025 -0.5 0 1 162.922 103.815)" fill="black"/>
<rect width="0.247171" height="15" transform="matrix(0.866025 -0.5 0 1 163.992 103.197)" fill="black"/>
<mask id="path-247-outside-13_722_911" maskUnits="userSpaceOnUse" x="122.134" y="-0.726562" width="79.6743" height="48" fill="black">
<rect fill="white" x="122.134" y="-0.726562" width="79.6743" height="48"/>
<path d="M123 45.7734L200.82 0.843857V1.14213L123 46.0717V45.7734Z"/>
</mask>
<path d="M123 45.7734L200.82 0.843857V1.14213L123 46.0717V45.7734Z" fill="#EDEDED"/>
<path d="M123 45.7734V45.2791L122.572 45.5263V46.0206L123 45.7734ZM200.82 0.843857L201.427 0.493857V-0.000484645L200.82 0.349515V0.843857ZM200.82 1.14213V1.63647L201.427 1.28647V0.792128L200.82 1.14213ZM123 46.0717L122.572 46.3189V46.8132L123 46.5661V46.0717ZM123 45.7734V46.2678L200.82 1.3382V0.843857V0.349515L123 45.2791V45.7734ZM200.82 0.843857L200.214 1.19386V1.49213L200.82 1.14213L201.427 0.792128V0.493857L200.82 0.843857ZM200.82 1.14213V0.647787L123 45.5774V46.0717V46.5661L200.82 1.63647V1.14213ZM123 46.0717L123.428 45.8245V45.5263L123 45.7734L122.572 46.0206V46.3189L123 46.0717Z" fill="black" mask="url(#path-247-outside-13_722_911)"/>
<mask id="path-249-outside-14_722_911" maskUnits="userSpaceOnUse" x="122.134" y="14.2725" width="79.6743" height="48" fill="black">
<rect fill="white" x="122.134" y="14.2725" width="79.6743" height="48"/>
<path d="M123 60.7725L200.82 15.8429V16.1412L123 61.0707V60.7725Z"/>
</mask>
<path d="M123 60.7725L200.82 15.8429V16.1412L123 61.0707V60.7725Z" fill="#EDEDED"/>
<path d="M123 60.7725V60.2781L122.572 60.5253V61.0196L123 60.7725ZM200.82 15.8429L201.427 15.4929V14.9985L200.82 15.3485V15.8429ZM200.82 16.1412V16.6355L201.427 16.2855V15.7912L200.82 16.1412ZM123 61.0707L122.572 61.3179V61.8122L123 61.5651V61.0707ZM123 60.7725V61.2668L200.82 16.3372V15.8429V15.3485L123 60.2781V60.7725ZM200.82 15.8429L200.214 16.1929V16.4912L200.82 16.1412L201.427 15.7912V15.4929L200.82 15.8429ZM200.82 16.1412V15.6468L123 60.5764V61.0707V61.5651L200.82 16.6355V16.1412ZM123 61.0707L123.428 60.8236V60.5253L123 60.7725L122.572 61.0196V61.3179L123 61.0707Z" fill="black" mask="url(#path-249-outside-14_722_911)"/>
<path d="M190.38 78.8728C190.097 79.0361 189.805 79.1578 189.505 79.2378C189.205 79.3178 188.928 79.3611 188.674 79.3678C188.419 79.3678 188.22 79.3261 188.076 79.2428C188.007 79.2028 187.963 79.1578 187.946 79.1078C187.929 79.0578 187.96 79.0094 188.041 78.9628C188.099 78.9294 188.171 78.9078 188.258 78.8978C188.344 78.8878 188.448 78.8744 188.57 78.8578C188.685 78.8378 188.821 78.8028 188.977 78.7528C189.138 78.6994 189.326 78.6111 189.54 78.4878C189.863 78.3011 190.045 78.1028 190.085 77.8928C190.12 77.6794 189.938 77.4578 189.54 77.2278C189.262 77.0678 188.965 76.9528 188.648 76.8828C188.324 76.8094 187.992 76.7778 187.652 76.7878C187.317 76.7944 186.993 76.8378 186.682 76.9178C186.37 76.9978 186.084 77.1128 185.824 77.2628C185.691 77.3394 185.576 77.4228 185.478 77.5128C185.38 77.6028 185.284 77.6744 185.192 77.7278C185.123 77.7678 185.045 77.7961 184.958 77.8128C184.872 77.8228 184.785 77.8194 184.698 77.8028C184.612 77.7861 184.54 77.7611 184.482 77.7278C184.326 77.6378 184.289 77.5228 184.369 77.3828C184.444 77.2394 184.667 77.0611 185.036 76.8478C185.417 76.6278 185.83 76.4594 186.275 76.3428C186.725 76.2228 187.19 76.1611 187.669 76.1578C188.148 76.1478 188.622 76.1978 189.089 76.3078C189.557 76.4178 189.996 76.5911 190.406 76.8278C190.671 76.9811 190.87 77.1461 191.003 77.3228C191.13 77.4961 191.191 77.6744 191.185 77.8578C191.185 78.0378 191.116 78.2144 190.977 78.3878C190.839 78.5611 190.639 78.7228 190.38 78.8728ZM190.977 81.0378C190.908 81.0778 190.83 81.1061 190.743 81.1228C190.662 81.1428 190.579 81.1444 190.492 81.1278C190.406 81.1111 190.319 81.0778 190.232 81.0278C190.146 80.9778 190.076 80.9244 190.025 80.8678C189.978 80.8078 189.921 80.7378 189.851 80.6578C189.782 80.5778 189.678 80.4844 189.54 80.3778C189.407 80.2678 189.213 80.1394 188.959 79.9928C188.538 79.7494 188.076 79.5294 187.574 79.3328C187.077 79.1328 186.572 78.9311 186.058 78.7278C185.538 78.5211 185.056 78.2928 184.612 78.0428C184.468 77.9594 184.387 77.8828 184.369 77.8128C184.352 77.7361 184.395 77.6678 184.499 77.6078C184.592 77.5544 184.704 77.5261 184.837 77.5228C184.97 77.5128 185.108 77.5261 185.253 77.5628C185.397 77.5928 185.53 77.6428 185.651 77.7128C185.997 77.9128 186.35 78.0894 186.708 78.2428C187.06 78.3928 187.415 78.5344 187.773 78.6678C188.131 78.8011 188.48 78.9394 188.821 79.0828C189.161 79.2261 189.488 79.3878 189.799 79.5678C190.082 79.7311 190.325 79.8878 190.527 80.0378C190.729 80.1878 190.882 80.3261 190.986 80.4528C191.095 80.5761 191.15 80.6878 191.15 80.7878C191.15 80.8878 191.093 80.9711 190.977 81.0378ZM193.772 76.9241C193.674 76.9808 193.57 77.0141 193.46 77.0241C193.351 77.0341 193.229 77.0208 193.097 76.9841C192.97 76.9441 192.84 76.8858 192.707 76.8091C192.257 76.5491 191.873 76.3274 191.555 76.1441C191.238 75.9608 190.96 75.8041 190.724 75.6741C190.487 75.5374 190.268 75.4108 190.066 75.2941C189.863 75.1774 189.65 75.0541 189.425 74.9241C189.321 74.8641 189.246 74.8041 189.199 74.7441C189.153 74.6841 189.139 74.6224 189.156 74.5591C189.173 74.4958 189.231 74.4358 189.329 74.3791C189.456 74.3058 189.604 74.2708 189.771 74.2741C189.944 74.2741 190.123 74.3241 190.308 74.4241C190.435 74.4974 190.614 74.6041 190.845 74.7441C191.07 74.8808 191.318 75.0341 191.59 75.2041C191.867 75.3708 192.147 75.5391 192.43 75.7091C192.707 75.8758 192.961 76.0291 193.192 76.1691C193.423 76.3091 193.608 76.4191 193.746 76.4991C193.856 76.5624 193.919 76.6324 193.937 76.7091C193.948 76.7824 193.893 76.8541 193.772 76.9241ZM188.689 73.8991C188.475 74.0224 188.232 74.0891 187.961 74.0991C187.69 74.1091 187.465 74.0624 187.286 73.9591C187.13 73.8691 187.058 73.7641 187.069 73.6441C187.081 73.5174 187.173 73.4041 187.346 73.3041C187.491 73.2208 187.649 73.1691 187.822 73.1491C188.001 73.1258 188.172 73.1308 188.333 73.1641C188.489 73.1941 188.625 73.2424 188.74 73.3091C188.85 73.3724 188.917 73.4608 188.94 73.5741C188.963 73.6808 188.879 73.7891 188.689 73.8991ZM196.367 75.4157C196.113 75.5624 195.868 75.6674 195.631 75.7307C195.394 75.7941 195.184 75.8224 194.999 75.8157C194.82 75.8057 194.679 75.7707 194.575 75.7107C194.488 75.6607 194.442 75.6041 194.436 75.5407C194.43 75.4774 194.477 75.4174 194.575 75.3607C194.632 75.3274 194.69 75.3074 194.748 75.3007C194.811 75.2907 194.881 75.2807 194.956 75.2707C195.037 75.2574 195.132 75.2324 195.241 75.1957C195.345 75.1557 195.472 75.0924 195.623 75.0057C195.992 74.7924 196.272 74.5807 196.463 74.3707C196.653 74.1541 196.691 73.9524 196.575 73.7657C196.408 73.7157 196.217 73.7091 196.004 73.7457C195.796 73.7791 195.571 73.8357 195.328 73.9157C195.08 73.9924 194.823 74.0741 194.557 74.1607C194.292 74.2407 194.032 74.3074 193.778 74.3607C193.524 74.4141 193.27 74.4341 193.016 74.4207C192.768 74.4041 192.537 74.3341 192.323 74.2107C192.121 74.0941 192 73.9507 191.959 73.7807C191.913 73.6074 191.933 73.4257 192.02 73.2357C192.106 73.0391 192.245 72.8491 192.436 72.6657C192.626 72.4824 192.851 72.3157 193.111 72.1657C193.348 72.0357 193.579 71.9657 193.804 71.9557C194.029 71.9457 194.196 71.9724 194.306 72.0357C194.393 72.0857 194.436 72.1407 194.436 72.2007C194.442 72.2574 194.396 72.3141 194.298 72.3707C194.263 72.3907 194.225 72.4091 194.185 72.4257C194.145 72.4424 194.098 72.4657 194.046 72.4957C193.994 72.5191 193.934 72.5507 193.865 72.5907C193.518 72.7907 193.27 72.9974 193.12 73.2107C192.97 73.4174 192.938 73.6191 193.024 73.8157C193.169 73.8657 193.345 73.8741 193.553 73.8407C193.766 73.8041 193.994 73.7457 194.237 73.6657C194.485 73.5824 194.745 73.4991 195.016 73.4157C195.282 73.3291 195.547 73.2591 195.813 73.2057C196.079 73.1457 196.338 73.1224 196.592 73.1357C196.847 73.1491 197.08 73.2174 197.294 73.3407C197.6 73.5174 197.747 73.7257 197.736 73.9657C197.724 74.1991 197.594 74.4407 197.346 74.6907C197.098 74.9407 196.771 75.1824 196.367 75.4157ZM201.716 72.3479C201.277 72.6013 200.792 72.7746 200.261 72.8679C199.729 72.9546 199.201 72.9596 198.676 72.8829C198.15 72.7996 197.674 72.6346 197.247 72.3879C196.924 72.2013 196.69 71.9996 196.545 71.7829C196.401 71.5596 196.323 71.3413 196.312 71.1279C196.3 70.9146 196.335 70.7279 196.415 70.5679C196.496 70.4013 196.6 70.2813 196.727 70.2079C196.791 70.1713 196.851 70.1463 196.909 70.1329C196.973 70.1163 197.039 70.1113 197.108 70.1179C197.172 70.1213 197.235 70.1413 197.299 70.1779C197.414 70.2446 197.492 70.3196 197.533 70.4029C197.579 70.4829 197.567 70.5896 197.498 70.7229C197.423 70.8929 197.394 71.0496 197.411 71.1929C197.423 71.3329 197.478 71.4646 197.576 71.5879C197.668 71.7079 197.804 71.8196 197.983 71.9229C198.451 72.1929 198.959 72.3329 199.507 72.3429C200.05 72.3496 200.546 72.2229 200.997 71.9629C201.378 71.7429 201.539 71.4829 201.482 71.1829C201.418 70.8796 201.144 70.5879 200.659 70.3079C200.214 70.0513 199.767 69.9096 199.317 69.8829C198.866 69.8496 198.468 69.9329 198.122 70.1329C197.937 70.2396 197.824 70.3446 197.784 70.4479C197.743 70.5513 197.723 70.6696 197.723 70.8029C197.717 70.9063 197.726 70.9913 197.749 71.0579C197.778 71.1213 197.79 71.1779 197.784 71.2279C197.772 71.2746 197.729 71.3196 197.654 71.3629C197.573 71.4096 197.484 71.4346 197.385 71.4379C197.287 71.4346 197.178 71.3979 197.056 71.3279C196.924 71.2513 196.828 71.1496 196.771 71.0229C196.713 70.8896 196.696 70.7496 196.719 70.6029C196.742 70.4496 196.802 70.3013 196.9 70.1579C196.999 70.0146 197.143 69.8879 197.333 69.7779C197.743 69.5413 198.185 69.3896 198.659 69.3229C199.126 69.2529 199.6 69.2663 200.079 69.3629C200.558 69.4529 201.017 69.6246 201.456 69.8779C201.883 70.1246 202.18 70.3996 202.348 70.7029C202.515 70.9996 202.55 71.2929 202.452 71.5829C202.348 71.8696 202.102 72.1246 201.716 72.3479Z" fill="black"/>
<path d="M121.38 118.373C121.097 118.536 120.805 118.658 120.505 118.738C120.205 118.818 119.928 118.861 119.674 118.868C119.419 118.868 119.22 118.826 119.076 118.743C119.007 118.703 118.963 118.658 118.946 118.608C118.929 118.558 118.96 118.509 119.041 118.463C119.099 118.429 119.171 118.408 119.258 118.398C119.344 118.388 119.448 118.374 119.57 118.358C119.685 118.338 119.821 118.303 119.977 118.253C120.138 118.199 120.326 118.111 120.54 117.988C120.863 117.801 121.045 117.603 121.085 117.393C121.12 117.179 120.938 116.958 120.54 116.728C120.262 116.568 119.965 116.453 119.648 116.383C119.324 116.309 118.992 116.278 118.652 116.288C118.317 116.294 117.993 116.338 117.682 116.418C117.37 116.498 117.084 116.613 116.824 116.763C116.691 116.839 116.576 116.923 116.478 117.013C116.38 117.103 116.284 117.174 116.192 117.228C116.123 117.268 116.045 117.296 115.958 117.313C115.872 117.323 115.785 117.319 115.698 117.303C115.612 117.286 115.54 117.261 115.482 117.228C115.326 117.138 115.289 117.023 115.369 116.883C115.444 116.739 115.667 116.561 116.036 116.348C116.417 116.128 116.83 115.959 117.275 115.843C117.725 115.723 118.19 115.661 118.669 115.658C119.148 115.648 119.622 115.698 120.089 115.808C120.557 115.918 120.996 116.091 121.406 116.328C121.671 116.481 121.87 116.646 122.003 116.823C122.13 116.996 122.191 117.174 122.185 117.358C122.185 117.538 122.116 117.714 121.977 117.888C121.839 118.061 121.639 118.223 121.38 118.373ZM121.977 120.538C121.908 120.578 121.83 120.606 121.743 120.623C121.662 120.643 121.579 120.644 121.492 120.628C121.406 120.611 121.319 120.578 121.232 120.528C121.146 120.478 121.076 120.424 121.025 120.368C120.978 120.308 120.921 120.238 120.851 120.158C120.782 120.078 120.678 119.984 120.54 119.878C120.407 119.768 120.213 119.639 119.959 119.493C119.538 119.249 119.076 119.029 118.574 118.833C118.077 118.633 117.572 118.431 117.058 118.228C116.538 118.021 116.056 117.793 115.612 117.543C115.468 117.459 115.387 117.383 115.369 117.313C115.352 117.236 115.395 117.168 115.499 117.108C115.592 117.054 115.704 117.026 115.837 117.023C115.97 117.013 116.108 117.026 116.253 117.063C116.397 117.093 116.53 117.143 116.651 117.213C116.997 117.413 117.35 117.589 117.708 117.743C118.06 117.893 118.415 118.034 118.773 118.168C119.131 118.301 119.48 118.439 119.821 118.583C120.161 118.726 120.488 118.888 120.799 119.068C121.082 119.231 121.325 119.388 121.527 119.538C121.729 119.688 121.882 119.826 121.986 119.953C122.095 120.076 122.15 120.188 122.15 120.288C122.15 120.388 122.093 120.471 121.977 120.538Z" fill="black"/>
<path d="M149.356 41.0828C148.917 41.3361 148.559 41.4494 148.282 41.4228C148.01 41.3861 147.808 41.2428 147.675 40.9928C147.548 40.7328 147.485 40.3894 147.485 39.9628C147.485 39.6228 147.537 39.2528 147.641 38.8528C147.751 38.4428 147.906 38.0394 148.109 37.6428C148.311 37.2394 148.553 36.8694 148.836 36.5328C149.119 36.1961 149.436 35.9261 149.789 35.7228C150.06 35.5661 150.297 35.4861 150.499 35.4828C150.701 35.4794 150.857 35.5594 150.966 35.7228C151.082 35.8761 151.14 36.1228 151.14 36.4628C151.14 36.8228 151.044 37.1844 150.854 37.5478C150.669 37.9011 150.415 38.2378 150.092 38.5578C149.768 38.8778 149.405 39.1544 149.001 39.3878C148.654 39.5878 148.412 39.6744 148.273 39.6478C148.134 39.6144 148.065 39.5311 148.065 39.3978C148.065 39.3178 148.083 39.2511 148.117 39.1978C148.152 39.1378 148.21 39.0844 148.29 39.0378C148.354 39.0011 148.432 38.9694 148.524 38.9428C148.622 38.9061 148.761 38.8361 148.94 38.7328C149.229 38.5661 149.48 38.3811 149.693 38.1778C149.913 37.9644 150.086 37.7444 150.213 37.5178C150.34 37.2911 150.403 37.0778 150.403 36.8778C150.403 36.6511 150.354 36.5094 150.256 36.4528C150.158 36.3961 149.996 36.4328 149.771 36.5628C149.546 36.6928 149.338 36.8728 149.148 37.1028C148.963 37.3294 148.801 37.5861 148.663 37.8728C148.53 38.1561 148.426 38.4528 148.351 38.7628C148.276 39.0661 148.238 39.3611 148.238 39.6478C148.238 39.8878 148.273 40.0844 148.342 40.2378C148.412 40.3844 148.524 40.4728 148.68 40.5028C148.836 40.5261 149.047 40.4611 149.312 40.3078C149.624 40.1278 149.884 39.9344 150.092 39.7278C150.305 39.5178 150.481 39.3194 150.62 39.1328C150.759 38.9394 150.874 38.7761 150.966 38.6428C151.065 38.4994 151.154 38.4044 151.235 38.3578C151.316 38.3111 151.371 38.3061 151.399 38.3428C151.428 38.3794 151.443 38.4578 151.443 38.5778C151.443 38.7111 151.385 38.8878 151.27 39.1078C151.16 39.3178 151.007 39.5461 150.811 39.7928C150.614 40.0394 150.392 40.2778 150.144 40.5078C149.895 40.7311 149.633 40.9228 149.356 41.0828ZM153.337 38.7841C153.083 38.9308 152.869 39.0174 152.696 39.0441C152.523 39.0708 152.393 39.0524 152.306 38.9891C152.226 38.9224 152.185 38.8291 152.185 38.7091C152.185 38.6091 152.211 38.5108 152.263 38.4141C152.315 38.3174 152.39 38.2408 152.488 38.1841C152.546 38.1508 152.592 38.1374 152.627 38.1441C152.667 38.1474 152.711 38.1524 152.757 38.1591C152.809 38.1624 152.878 38.1524 152.965 38.1291C153.051 38.0991 153.17 38.0408 153.32 37.9541C153.689 37.7408 154.013 37.5041 154.29 37.2441C154.573 36.9741 154.766 36.6824 154.87 36.3691C154.829 36.2458 154.74 36.1808 154.601 36.1741C154.469 36.1641 154.307 36.1841 154.116 36.2341C153.926 36.2774 153.727 36.3258 153.519 36.3791C153.317 36.4224 153.129 36.4474 152.956 36.4541C152.783 36.4608 152.638 36.4174 152.523 36.3241C152.413 36.2274 152.358 36.0558 152.358 35.8091C152.358 35.5758 152.422 35.3258 152.549 35.0591C152.676 34.7858 152.843 34.5191 153.051 34.2591C153.265 33.9891 153.499 33.7441 153.753 33.5241C154.007 33.3041 154.264 33.1191 154.523 32.9691C154.679 32.8791 154.809 32.8341 154.913 32.8341C155.017 32.8341 155.095 32.8624 155.147 32.9191C155.205 32.9658 155.234 33.0324 155.234 33.1191C155.234 33.2191 155.208 33.3141 155.156 33.4041C155.109 33.4908 155.037 33.5624 154.939 33.6191C154.905 33.6391 154.87 33.6558 154.835 33.6691C154.801 33.6824 154.757 33.7041 154.705 33.7341C154.659 33.7541 154.601 33.7841 154.532 33.8241C154.186 34.0241 153.883 34.2624 153.623 34.5391C153.369 34.8058 153.178 35.0991 153.051 35.4191C153.08 35.5358 153.161 35.5991 153.294 35.6091C153.432 35.6158 153.597 35.5941 153.787 35.5441C153.984 35.4908 154.186 35.4408 154.394 35.3941C154.601 35.3408 154.795 35.3124 154.974 35.3091C155.159 35.2958 155.309 35.3358 155.424 35.4291C155.54 35.5224 155.597 35.6924 155.597 35.9391C155.597 36.2058 155.537 36.4708 155.415 36.7341C155.294 36.9974 155.127 37.2541 154.913 37.5041C154.705 37.7508 154.466 37.9824 154.194 38.1991C153.923 38.4158 153.637 38.6108 153.337 38.7841ZM158.581 35.7568C158.298 35.9201 158.046 36.0184 157.827 36.0518C157.608 36.0851 157.432 36.0701 157.299 36.0068C157.172 35.9334 157.108 35.8134 157.108 35.6468C157.108 35.5668 157.126 35.4868 157.16 35.4068C157.195 35.3268 157.253 35.2634 157.333 35.2168C157.391 35.1834 157.446 35.1718 157.498 35.1818C157.55 35.1918 157.613 35.2018 157.689 35.2118C157.764 35.2151 157.862 35.2018 157.983 35.1718C158.11 35.1384 158.28 35.0601 158.494 34.9368C158.817 34.7501 159.08 34.5051 159.282 34.2018C159.484 33.8918 159.585 33.5068 159.585 33.0468C159.585 32.7268 159.536 32.4684 159.438 32.2718C159.34 32.0684 159.201 31.9251 159.022 31.8418C158.849 31.7551 158.65 31.7268 158.425 31.7568C158.199 31.7868 157.957 31.8768 157.697 32.0268C157.564 32.1034 157.434 32.1951 157.307 32.3018C157.18 32.4084 157.071 32.4884 156.978 32.5418C156.909 32.5818 156.846 32.6018 156.788 32.6018C156.736 32.5918 156.695 32.5618 156.667 32.5118C156.638 32.4618 156.623 32.4034 156.623 32.3368C156.623 32.1568 156.704 31.9734 156.866 31.7868C157.027 31.5934 157.293 31.3901 157.663 31.1768C158.044 30.9568 158.396 30.8234 158.719 30.7768C159.048 30.7268 159.334 30.7684 159.576 30.9018C159.825 31.0251 160.018 31.2368 160.157 31.5368C160.295 31.8368 160.365 32.2234 160.365 32.6968C160.365 33.0034 160.321 33.3084 160.235 33.6118C160.148 33.9084 160.024 34.1934 159.862 34.4668C159.706 34.7368 159.519 34.9818 159.299 35.2018C159.08 35.4218 158.84 35.6068 158.581 35.7568ZM157.004 39.1768C156.935 39.2168 156.872 39.2368 156.814 39.2368C156.756 39.2434 156.713 39.2218 156.684 39.1718C156.655 39.1218 156.641 39.0468 156.641 38.9468C156.641 38.8468 156.652 38.7468 156.675 38.6468C156.704 38.5434 156.736 38.4218 156.771 38.2818C156.805 38.1418 156.834 37.9718 156.857 37.7718C156.886 37.5684 156.9 37.3201 156.9 37.0268C156.9 36.5401 156.86 36.0768 156.779 35.6368C156.704 35.1934 156.626 34.7451 156.545 34.2918C156.465 33.8318 156.421 33.3501 156.415 32.8468C156.415 32.6801 156.441 32.5418 156.493 32.4318C156.551 32.3118 156.632 32.2218 156.736 32.1618C156.828 32.1084 156.909 32.0984 156.978 32.1318C157.053 32.1551 157.111 32.2151 157.152 32.3118C157.198 32.3984 157.221 32.5118 157.221 32.6518C157.221 33.0518 157.244 33.4184 157.29 33.7518C157.336 34.0784 157.391 34.3934 157.455 34.6968C157.518 35.0001 157.573 35.3084 157.619 35.6218C157.665 35.9351 157.689 36.2718 157.689 36.6318C157.689 36.9584 157.674 37.2634 157.645 37.5468C157.616 37.8301 157.573 38.0818 157.515 38.3018C157.463 38.5184 157.394 38.7018 157.307 38.8518C157.221 39.0018 157.12 39.1101 157.004 39.1768ZM163.166 33.1091C162.728 33.3625 162.37 33.4758 162.092 33.4491C161.821 33.4125 161.619 33.2691 161.486 33.0191C161.359 32.7591 161.296 32.4158 161.296 31.9891C161.296 31.6491 161.348 31.2791 161.452 30.8791C161.561 30.4691 161.717 30.0658 161.919 29.6691C162.121 29.2658 162.364 28.8958 162.647 28.5591C162.93 28.2225 163.247 27.9525 163.599 27.7491C164.003 27.5158 164.33 27.4541 164.578 27.5641C164.826 27.6741 164.95 27.9825 164.95 28.4891C164.95 28.8491 164.855 29.2108 164.665 29.5741C164.48 29.9275 164.226 30.2641 163.902 30.5841C163.579 30.9041 163.215 31.1808 162.811 31.4141C162.465 31.6141 162.222 31.7008 162.084 31.6741C161.945 31.6408 161.876 31.5575 161.876 31.4241C161.876 31.3441 161.893 31.2775 161.928 31.2241C161.963 31.1641 162.02 31.1108 162.101 31.0641C162.165 31.0275 162.243 30.9958 162.335 30.9691C162.433 30.9325 162.572 30.8625 162.751 30.7591C163.039 30.5925 163.29 30.4075 163.504 30.2041C163.723 29.9908 163.897 29.7708 164.024 29.5441C164.151 29.3175 164.214 29.1041 164.214 28.9041C164.214 28.6775 164.165 28.5358 164.067 28.4791C163.969 28.4225 163.807 28.4591 163.582 28.5891C163.357 28.7191 163.149 28.8991 162.958 29.1291C162.774 29.3558 162.612 29.6125 162.474 29.8991C162.341 30.1825 162.237 30.4791 162.162 30.7891C162.087 31.0925 162.049 31.3875 162.049 31.6741C162.049 31.9141 162.084 32.1108 162.153 32.2641C162.222 32.4108 162.335 32.4991 162.491 32.5291C162.647 32.5525 162.857 32.4875 163.123 32.3341C163.435 32.1541 163.695 31.9608 163.902 31.7541C164.116 31.5441 164.292 31.3458 164.431 31.1591C164.569 30.9658 164.685 30.8025 164.777 30.6691C164.875 30.5258 164.965 30.4308 165.046 30.3841C165.126 30.3375 165.181 30.3325 165.21 30.3691C165.239 30.4058 165.253 30.4841 165.253 30.6041C165.253 30.7375 165.196 30.9141 165.08 31.1341C164.971 31.3441 164.818 31.5725 164.621 31.8191C164.425 32.0658 164.203 32.3041 163.954 32.5341C163.706 32.7575 163.443 32.9491 163.166 33.1091ZM167.467 30.6363C167.334 30.713 167.204 30.7646 167.077 30.7913C166.956 30.8213 166.843 30.803 166.739 30.7363C166.641 30.6663 166.555 30.533 166.479 30.3363C166.404 30.1396 166.344 29.858 166.298 29.4913C166.257 29.1213 166.237 28.6463 166.237 28.0663C166.237 27.5063 166.246 27.008 166.263 26.5713C166.286 26.1246 166.315 25.7113 166.35 25.3313C166.39 24.9413 166.436 24.5546 166.488 24.1713C166.529 23.8946 166.578 23.6896 166.635 23.5563C166.693 23.423 166.771 23.328 166.869 23.2713C166.985 23.2046 167.077 23.208 167.146 23.2813C167.216 23.3546 167.25 23.5246 167.25 23.7913C167.25 23.978 167.239 24.188 167.216 24.4213C167.193 24.6546 167.164 24.928 167.129 25.2413C167.1 25.5513 167.074 25.9163 167.051 26.3363C167.028 26.7496 167.016 27.243 167.016 27.8163C167.016 28.2496 167.028 28.6063 167.051 28.8863C167.08 29.1563 167.115 29.363 167.155 29.5063C167.201 29.6463 167.256 29.7346 167.32 29.7713C167.383 29.8013 167.447 29.798 167.51 29.7613C167.591 29.7146 167.654 29.668 167.701 29.6213C167.747 29.5746 167.784 29.5363 167.813 29.5063C167.848 29.4663 167.885 29.4346 167.926 29.4113C168.03 29.3513 168.099 29.3446 168.134 29.3913C168.168 29.438 168.186 29.508 168.186 29.6013C168.186 29.7213 168.151 29.8513 168.082 29.9913C168.012 30.1246 167.923 30.2463 167.813 30.3563C167.703 30.473 167.588 30.5663 167.467 30.6363ZM169.379 29.5124C169.281 29.569 169.191 29.5807 169.11 29.5474C169.035 29.5107 168.975 29.4224 168.928 29.2824C168.882 29.1424 168.859 28.9457 168.859 28.6924C168.859 27.9924 168.894 27.3457 168.963 26.7524C169.032 26.159 169.107 25.6124 169.188 25.1124C169.275 24.6024 169.335 24.1474 169.37 23.7474C169.387 23.5374 169.393 23.3474 169.387 23.1774C169.387 23.004 169.385 22.8424 169.379 22.6924C169.379 22.5324 169.385 22.3824 169.396 22.2424C169.408 22.1224 169.439 22.004 169.491 21.8874C169.543 21.7707 169.627 21.679 169.743 21.6124C169.87 21.539 169.968 21.539 170.037 21.6124C170.106 21.6857 170.152 21.8424 170.176 22.0824C170.204 22.3124 170.199 22.6524 170.158 23.1024C170.118 23.5457 170.054 24.0357 169.968 24.5724C169.887 25.1057 169.812 25.6657 169.743 26.2524C169.679 26.829 169.653 27.404 169.665 27.9774L169.474 27.9174C169.763 26.8707 170.028 26.0174 170.271 25.3574C170.519 24.694 170.759 24.1824 170.99 23.8224C171.221 23.4557 171.451 23.2057 171.682 23.0724C171.936 22.9257 172.13 22.9074 172.263 23.0174C172.395 23.1274 172.496 23.339 172.566 23.6524C172.635 23.959 172.687 24.3457 172.722 24.8124C172.762 25.2157 172.8 25.5374 172.834 25.7774C172.875 26.0074 172.918 26.1857 172.964 26.3124C173.01 26.4324 173.059 26.534 173.111 26.6174C173.14 26.654 173.163 26.6974 173.181 26.7474C173.198 26.7974 173.207 26.8557 173.207 26.9224C173.207 27.0357 173.172 27.149 173.103 27.2624C173.039 27.3724 172.955 27.4574 172.852 27.5174C172.707 27.6007 172.577 27.5824 172.462 27.4624C172.346 27.3357 172.251 27.1374 172.176 26.8674C172.101 26.5907 172.049 26.2774 172.02 25.9274C171.991 25.524 171.96 25.199 171.925 24.9524C171.89 24.7057 171.85 24.5124 171.804 24.3724C171.763 24.2224 171.708 24.104 171.639 24.0174C171.518 24.1007 171.353 24.3557 171.145 24.7824C170.943 25.2057 170.724 25.7657 170.487 26.4624C170.256 27.1557 170.034 27.954 169.82 28.8574C169.774 29.044 169.714 29.1857 169.639 29.2824C169.569 29.3757 169.483 29.4524 169.379 29.5124ZM176.242 25.5798C175.803 25.8331 175.411 25.9531 175.064 25.9398C174.724 25.9165 174.455 25.7715 174.259 25.5048C174.068 25.2281 173.973 24.8431 173.973 24.3498C173.973 23.9765 174.031 23.6065 174.146 23.2398C174.268 22.8631 174.418 22.5131 174.597 22.1898C174.776 21.8665 174.955 21.5965 175.134 21.3798C175.318 21.1531 175.474 21.0031 175.601 20.9298C175.665 20.8931 175.717 20.8731 175.757 20.8698C175.803 20.8631 175.841 20.8748 175.87 20.9048C175.899 20.9281 175.913 20.9765 175.913 21.0498C175.913 21.1831 175.887 21.3181 175.835 21.4548C175.789 21.5881 175.691 21.7448 175.541 21.9248C175.356 22.1581 175.206 22.3848 175.09 22.6048C174.975 22.8181 174.888 23.0315 174.831 23.2448C174.773 23.4515 174.744 23.6581 174.744 23.8648C174.744 24.4048 174.877 24.7615 175.142 24.9348C175.408 25.1015 175.766 25.0548 176.216 24.7948C176.597 24.5748 176.903 24.2315 177.134 23.7648C177.365 23.2915 177.481 22.7748 177.481 22.2148C177.481 21.7015 177.38 21.3598 177.177 21.1898C176.981 21.0098 176.71 21.0198 176.363 21.2198C176.179 21.3265 176.031 21.4515 175.922 21.5948C175.812 21.7381 175.699 21.9098 175.584 22.1098C175.492 22.2631 175.422 22.3931 175.376 22.4998C175.336 22.6031 175.292 22.6915 175.246 22.7648C175.2 22.8315 175.139 22.8865 175.064 22.9298C174.984 22.9765 174.917 22.9881 174.865 22.9648C174.819 22.9315 174.796 22.8448 174.796 22.7048C174.796 22.5515 174.836 22.3715 174.917 22.1648C175.004 21.9481 175.116 21.7331 175.255 21.5198C175.399 21.2965 175.558 21.0915 175.731 20.9048C175.904 20.7181 176.086 20.5698 176.277 20.4598C176.687 20.2231 177.039 20.1231 177.333 20.1598C177.628 20.1898 177.853 20.3465 178.009 20.6298C178.171 20.9031 178.251 21.2931 178.251 21.7998C178.251 22.2931 178.162 22.7915 177.983 23.2948C177.81 23.7881 177.573 24.2381 177.273 24.6448C176.973 25.0448 176.629 25.3565 176.242 25.5798Z" fill="black"/>
<path d="M84.0831 79.6328C83.6847 79.8628 83.3296 79.9944 83.0178 80.0278C82.7061 80.0544 82.4434 79.9961 82.2298 79.8528C82.0219 79.6994 81.8631 79.4711 81.7534 79.1678C81.6437 78.8644 81.5889 78.4994 81.5889 78.0728C81.5889 77.7661 81.6149 77.4378 81.6668 77.0878C81.7246 76.7344 81.7996 76.3844 81.892 76.0378C81.9902 75.6878 82.097 75.3561 82.2124 75.0428C82.3164 74.7694 82.4289 74.5211 82.5502 74.2978C82.6714 74.0744 82.81 73.9178 82.9659 73.8278C83.0467 73.7811 83.1131 73.7594 83.1651 73.7628C83.217 73.7594 83.2459 73.7928 83.2517 73.8628C83.2574 73.9261 83.2315 74.0344 83.1737 74.1878C83.0294 74.5378 82.8966 74.9111 82.7754 75.3078C82.6541 75.6978 82.556 76.0911 82.4809 76.4878C82.4116 76.8744 82.3741 77.2494 82.3683 77.6128C82.3683 78.0394 82.4376 78.3761 82.5762 78.6228C82.7147 78.8628 82.911 78.9994 83.1651 79.0328C83.4249 79.0628 83.7222 78.9811 84.0571 78.7878C84.3573 78.6144 84.6027 78.4528 84.7932 78.3028C84.9895 78.1494 85.1454 78.0128 85.2608 77.8928C85.3763 77.7661 85.4716 77.6644 85.5466 77.5878C85.6217 77.5044 85.6881 77.4461 85.7458 77.4128C85.844 77.3561 85.9133 77.3494 85.9537 77.3928C85.9999 77.4261 86.0229 77.4928 86.0229 77.5928C86.0229 77.7394 85.9508 77.9244 85.8064 78.1478C85.6679 78.3678 85.4543 78.6078 85.1656 78.8678C84.8827 79.1244 84.5218 79.3794 84.0831 79.6328ZM82.4203 77.7928C82.299 77.8961 82.2009 77.9528 82.1258 77.9628C82.0566 77.9628 82.0046 77.9361 81.9699 77.8828C81.9411 77.8194 81.9266 77.7478 81.9266 77.6678C81.9266 77.5544 81.9757 77.4261 82.0739 77.2828C82.1778 77.1294 82.3221 76.9828 82.5069 76.8428C82.6916 76.6961 82.8879 76.5461 83.0958 76.3928C83.3094 76.2361 83.523 76.0828 83.7366 75.9328C83.956 75.7794 84.1639 75.6361 84.3602 75.5028C84.5623 75.3661 84.7412 75.2528 84.8971 75.1628C85.0761 75.0594 85.1973 75.0194 85.2608 75.0428C85.3301 75.0628 85.3648 75.1228 85.3648 75.2228C85.3648 75.4028 85.2984 75.5711 85.1656 75.7278C85.0328 75.8778 84.874 76.0128 84.6893 76.1328C84.4872 76.2694 84.2793 76.4128 84.0657 76.5628C83.8579 76.7028 83.6529 76.8478 83.4509 76.9978C83.2546 77.1378 83.0669 77.2794 82.8879 77.4228C82.7147 77.5561 82.5588 77.6794 82.4203 77.7928ZM82.1865 74.7178C82.0248 74.8111 81.9007 74.8428 81.8141 74.8128C81.7332 74.7794 81.6928 74.7061 81.6928 74.5928C81.6928 74.5194 81.713 74.4344 81.7534 74.3378C81.7939 74.2411 81.866 74.1461 81.9699 74.0528C82.3395 73.7594 82.7407 73.4611 83.1737 73.1578C83.6125 72.8511 84.0397 72.5644 84.4554 72.2978C84.8769 72.0278 85.2435 71.8028 85.5553 71.6228C85.7112 71.5328 85.8266 71.5028 85.9017 71.5328C85.9768 71.5561 86.0143 71.6278 86.0143 71.7478C86.0143 71.8811 85.9796 72.0144 85.9104 72.1478C85.8411 72.2744 85.7285 72.3828 85.5726 72.4728C85.0703 72.7628 84.6373 73.0261 84.2736 73.2628C83.9156 73.4961 83.6067 73.7078 83.3469 73.8978C83.0929 74.0844 82.8706 74.2494 82.6801 74.3928C82.4953 74.5261 82.3308 74.6344 82.1865 74.7178Z" fill="black"/>
</svg>
